<svg width="375" height="410" viewBox="0 0 375 410" fill="none" xmlns="http://www.w3.org/2000/svg">
<g filter="url(#filter0_d_17_1297)">
<rect x="10" y="8" width="355" height="390" fill="#1E1E1E"/>
</g>
<path d="M41.4759 40.4545H43.9688L47.7685 47.0668H47.9247L51.7244 40.4545H54.2173L48.9403 49.2898V55H46.7528V49.2898L41.4759 40.4545ZM58.9173 55.2202C57.8945 55.2202 57.002 54.9858 56.2397 54.517C55.4774 54.0483 54.8855 53.3925 54.4641 52.5497C54.0427 51.7069 53.832 50.7221 53.832 49.5952C53.832 48.4635 54.0427 47.474 54.4641 46.6264C54.8855 45.7789 55.4774 45.1207 56.2397 44.652C57.002 44.1832 57.8945 43.9489 58.9173 43.9489C59.94 43.9489 60.8325 44.1832 61.5948 44.652C62.3571 45.1207 62.949 45.7789 63.3704 46.6264C63.7918 47.474 64.0025 48.4635 64.0025 49.5952C64.0025 50.7221 63.7918 51.7069 63.3704 52.5497C62.949 53.3925 62.3571 54.0483 61.5948 54.517C60.8325 54.9858 59.94 55.2202 58.9173 55.2202ZM58.9244 53.4375C59.5872 53.4375 60.1365 53.2623 60.5721 52.9119C61.0077 52.5616 61.3297 52.0952 61.538 51.5128C61.7511 50.9304 61.8576 50.2888 61.8576 49.5881C61.8576 48.892 61.7511 48.2528 61.538 47.6705C61.3297 47.0833 61.0077 46.6122 60.5721 46.2571C60.1365 45.902 59.5872 45.7244 58.9244 45.7244C58.2567 45.7244 57.7028 45.902 57.2624 46.2571C56.8268 46.6122 56.5025 47.0833 56.2894 47.6705C56.0811 48.2528 55.9769 48.892 55.9769 49.5881C55.9769 50.2888 56.0811 50.9304 56.2894 51.5128C56.5025 52.0952 56.8268 52.5616 57.2624 52.9119C57.7028 53.2623 58.2567 53.4375 58.9244 53.4375ZM73.2834 50.4759V44.0909H75.4141V55H73.326V53.1108H73.2124C72.9614 53.6932 72.5589 54.1785 72.005 54.5668C71.4557 54.9503 70.7715 55.142 69.9524 55.142C69.2517 55.142 68.6314 54.9882 68.0916 54.6804C67.5566 54.3679 67.1352 53.9062 66.8274 53.2955C66.5244 52.6847 66.3729 51.9295 66.3729 51.0298V44.0909H68.4964V50.7741C68.4964 51.5175 68.7024 52.1094 69.1143 52.5497C69.5263 52.9901 70.0613 53.2102 70.7195 53.2102C71.1172 53.2102 71.5125 53.1108 71.9055 52.9119C72.3033 52.7131 72.6323 52.4124 72.8928 52.0099C73.1579 51.6075 73.2881 51.0961 73.2834 50.4759ZM78.2674 55V44.0909H80.32V45.8239H80.4336C80.6325 45.2367 80.9828 44.7751 81.4847 44.4389C81.9914 44.098 82.5643 43.9276 83.2035 43.9276C83.3361 43.9276 83.4923 43.9323 83.6722 43.9418C83.8569 43.9512 84.0013 43.9631 84.1055 43.9773V46.0085C84.0202 45.9848 83.8687 45.9588 83.6509 45.9304C83.4331 45.8973 83.2153 45.8807 82.9975 45.8807C82.4956 45.8807 82.0482 45.9872 81.6552 46.2003C81.2669 46.4086 80.9592 46.6998 80.7319 47.0739C80.5046 47.4432 80.391 47.8646 80.391 48.3381V55H78.2674ZM91.4066 55V40.4545H93.6012V53.1108H100.192V55H91.4066ZM102.525 55V44.0909H104.649V55H102.525ZM103.598 42.4077C103.228 42.4077 102.911 42.2846 102.646 42.0384C102.386 41.7874 102.255 41.4891 102.255 41.1435C102.255 40.7931 102.386 40.4948 102.646 40.2486C102.911 39.9976 103.228 39.8722 103.598 39.8722C103.967 39.8722 104.282 39.9976 104.542 40.2486C104.807 40.4948 104.94 40.7931 104.94 41.1435C104.94 41.4891 104.807 41.7874 104.542 42.0384C104.282 42.2846 103.967 42.4077 103.598 42.4077ZM112.697 44.0909V45.7955H106.533V44.0909H112.697ZM108.223 55V42.8267C108.223 42.1449 108.372 41.5791 108.67 41.1293C108.969 40.6747 109.364 40.3362 109.857 40.1136C110.349 39.8864 110.884 39.7727 111.462 39.7727C111.888 39.7727 112.252 39.8082 112.555 39.8793C112.858 39.9455 113.083 40.0071 113.23 40.0639L112.733 41.7827C112.634 41.7543 112.506 41.7211 112.349 41.6832C112.193 41.6406 112.004 41.6193 111.781 41.6193C111.265 41.6193 110.896 41.7472 110.673 42.0028C110.455 42.2585 110.347 42.6278 110.347 43.1108V55H108.223ZM119.161 55.2202C118.086 55.2202 117.16 54.9905 116.384 54.5312C115.612 54.0672 115.015 53.4162 114.594 52.5781C114.177 51.7353 113.969 50.7481 113.969 49.6165C113.969 48.4991 114.177 47.5142 114.594 46.6619C115.015 45.8097 115.602 45.1444 116.355 44.6662C117.113 44.188 117.998 43.9489 119.011 43.9489C119.627 43.9489 120.223 44.0507 120.801 44.2543C121.379 44.4579 121.897 44.7775 122.357 45.2131C122.816 45.6487 123.178 46.2145 123.443 46.9105C123.708 47.6018 123.841 48.4422 123.841 49.4318V50.1847H115.169V48.5938H121.76C121.76 48.035 121.646 47.5402 121.419 47.1094C121.192 46.6738 120.872 46.3305 120.46 46.0795C120.053 45.8286 119.575 45.7031 119.026 45.7031C118.429 45.7031 117.908 45.8499 117.463 46.1435C117.023 46.4323 116.682 46.8111 116.44 47.2798C116.204 47.7438 116.085 48.2481 116.085 48.7926V50.0355C116.085 50.7647 116.213 51.3849 116.469 51.8963C116.729 52.4077 117.091 52.7983 117.555 53.0682C118.019 53.3333 118.562 53.4659 119.182 53.4659C119.584 53.4659 119.951 53.4091 120.283 53.2955C120.614 53.1771 120.901 53.0019 121.142 52.7699C121.384 52.5379 121.568 52.2514 121.696 51.9105L123.706 52.2727C123.545 52.8646 123.256 53.383 122.839 53.8281C122.428 54.2685 121.909 54.6117 121.284 54.858C120.664 55.0994 119.956 55.2202 119.161 55.2202Z" fill="white"/>
<path d="M46.8295 75.4545C46.7784 75.0227 46.571 74.6875 46.2074 74.4489C45.8438 74.2102 45.3977 74.0909 44.8693 74.0909C44.483 74.0909 44.1449 74.1534 43.8551 74.2784C43.5682 74.4034 43.3438 74.5753 43.1818 74.794C43.0227 75.0128 42.9432 75.2614 42.9432 75.5398C42.9432 75.7727 42.9986 75.973 43.1094 76.1406C43.223 76.3054 43.3679 76.4432 43.544 76.554C43.7202 76.6619 43.9048 76.7514 44.098 76.8224C44.2912 76.8906 44.4688 76.946 44.6307 76.9886L45.517 77.2273C45.7443 77.2869 45.9972 77.3693 46.2756 77.4744C46.5568 77.5795 46.8253 77.723 47.081 77.9048C47.3395 78.0838 47.5526 78.3139 47.7202 78.5952C47.8878 78.8764 47.9716 79.2216 47.9716 79.6307C47.9716 80.1023 47.848 80.5284 47.6009 80.9091C47.3565 81.2898 46.9986 81.5923 46.527 81.8168C46.0582 82.0412 45.4886 82.1534 44.8182 82.1534C44.1932 82.1534 43.652 82.0526 43.1946 81.8509C42.7401 81.6491 42.3821 81.3679 42.1207 81.0071C41.8622 80.6463 41.7159 80.2273 41.6818 79.75H42.7727C42.8011 80.0795 42.9119 80.3523 43.1051 80.5682C43.3011 80.7812 43.5483 80.9403 43.8466 81.0455C44.1477 81.1477 44.4716 81.1989 44.8182 81.1989C45.2216 81.1989 45.5838 81.1335 45.9048 81.0028C46.2259 80.8693 46.4801 80.6847 46.6676 80.4489C46.8551 80.2102 46.9489 79.9318 46.9489 79.6136C46.9489 79.3239 46.8679 79.0881 46.706 78.9062C46.544 78.7244 46.331 78.5767 46.0668 78.4631C45.8026 78.3494 45.517 78.25 45.2102 78.1648L44.1364 77.858C43.4545 77.6619 42.9148 77.3821 42.517 77.0185C42.1193 76.6548 41.9205 76.179 41.9205 75.5909C41.9205 75.1023 42.0526 74.6761 42.3168 74.3125C42.5838 73.946 42.9418 73.6619 43.3906 73.4602C43.8423 73.2557 44.3466 73.1534 44.9034 73.1534C45.4659 73.1534 45.9659 73.2543 46.4034 73.456C46.8409 73.6548 47.1875 73.9276 47.4432 74.2741C47.7017 74.6207 47.8381 75.0142 47.8523 75.4545H46.8295ZM52.4194 75.4545V76.3068H49.0273V75.4545H52.4194ZM50.016 73.8864H51.0217V80.125C51.0217 80.4091 51.0629 80.6222 51.1452 80.7642C51.2305 80.9034 51.3384 80.9972 51.4691 81.0455C51.6026 81.0909 51.7433 81.1136 51.891 81.1136C52.0018 81.1136 52.0927 81.108 52.1637 81.0966C52.2347 81.0824 52.2915 81.071 52.3342 81.0625L52.5387 81.9659C52.4705 81.9915 52.3754 82.017 52.2532 82.0426C52.131 82.071 51.9762 82.0852 51.7887 82.0852C51.5046 82.0852 51.2262 82.0241 50.9535 81.902C50.6836 81.7798 50.4592 81.5938 50.2802 81.3438C50.104 81.0938 50.016 80.7784 50.016 80.3977V73.8864ZM55.8583 82.1534C55.4435 82.1534 55.0671 82.0753 54.729 81.919C54.391 81.7599 54.1225 81.5312 53.9237 81.233C53.7248 80.9318 53.6254 80.5682 53.6254 80.142C53.6254 79.767 53.6992 79.4631 53.8469 79.2301C53.9947 78.9943 54.1921 78.8097 54.4393 78.6761C54.6864 78.5426 54.9592 78.4432 55.2575 78.3778C55.5586 78.3097 55.8612 78.2557 56.1651 78.2159C56.5629 78.1648 56.8853 78.1264 57.1325 78.1009C57.3825 78.0724 57.5643 78.0256 57.6779 77.9602C57.7944 77.8949 57.8526 77.7812 57.8526 77.6193V77.5852C57.8526 77.1648 57.7376 76.8381 57.5075 76.6051C57.2802 76.3722 56.935 76.2557 56.4719 76.2557C55.9918 76.2557 55.6154 76.3608 55.3427 76.571C55.07 76.7812 54.8782 77.0057 54.7674 77.2443L53.8129 76.9034C53.9833 76.5057 54.2106 76.196 54.4947 75.9744C54.7816 75.75 55.0941 75.5937 55.4322 75.5057C55.7731 75.4148 56.1083 75.3693 56.4379 75.3693C56.6481 75.3693 56.8896 75.3949 57.1623 75.446C57.4379 75.4943 57.7035 75.5952 57.9592 75.7486C58.2177 75.902 58.4322 76.1335 58.6026 76.4432C58.7731 76.7528 58.8583 77.1676 58.8583 77.6875V82H57.8526V81.1136H57.8015C57.7333 81.2557 57.6197 81.4077 57.4606 81.5696C57.3015 81.7315 57.0898 81.8693 56.8256 81.983C56.5614 82.0966 56.239 82.1534 55.8583 82.1534ZM56.0117 81.25C56.4094 81.25 56.7447 81.1719 57.0174 81.0156C57.293 80.8594 57.5004 80.6577 57.6396 80.4105C57.7816 80.1634 57.8526 79.9034 57.8526 79.6307V78.7102C57.81 78.7614 57.7163 78.8082 57.5714 78.8509C57.4293 78.8906 57.2646 78.9261 57.0771 78.9574C56.8924 78.9858 56.712 79.0114 56.5359 79.0341C56.3626 79.054 56.2219 79.071 56.114 79.0852C55.8526 79.1193 55.6083 79.1747 55.381 79.2514C55.1566 79.3253 54.9748 79.4375 54.8356 79.5881C54.6992 79.7358 54.631 79.9375 54.631 80.1932C54.631 80.5426 54.7603 80.8068 55.0188 80.9858C55.2802 81.1619 55.6112 81.25 56.0117 81.25ZM60.6939 82V75.4545H61.6655V76.4432H61.7337C61.853 76.1193 62.0689 75.8565 62.3814 75.6548C62.6939 75.4531 63.0462 75.3523 63.4382 75.3523C63.5121 75.3523 63.6044 75.3537 63.7152 75.3565C63.826 75.3594 63.9098 75.3636 63.9666 75.3693V76.392C63.9325 76.3835 63.8544 76.3707 63.7322 76.3537C63.6129 76.3338 63.4865 76.3239 63.353 76.3239C63.0348 76.3239 62.7507 76.3906 62.5007 76.5241C62.2536 76.6548 62.0575 76.8366 61.9126 77.0696C61.7706 77.2997 61.6996 77.5625 61.6996 77.858V82H60.6939ZM68.4155 75.4545V76.3068H65.0234V75.4545H68.4155ZM66.0121 73.8864H67.0178V80.125C67.0178 80.4091 67.0589 80.6222 67.1413 80.7642C67.2266 80.9034 67.3345 80.9972 67.4652 81.0455C67.5987 81.0909 67.7393 81.1136 67.8871 81.1136C67.9979 81.1136 68.0888 81.108 68.1598 81.0966C68.2308 81.0824 68.2876 81.071 68.3303 81.0625L68.5348 81.9659C68.4666 81.9915 68.3714 82.017 68.2493 82.0426C68.1271 82.071 67.9723 82.0852 67.7848 82.0852C67.5007 82.0852 67.2223 82.0241 66.9496 81.902C66.6797 81.7798 66.4553 81.5938 66.2763 81.3438C66.1001 81.0938 66.0121 80.7784 66.0121 80.3977V73.8864ZM69.9283 82V75.4545H70.9339V82H69.9283ZM70.4396 74.3636C70.2436 74.3636 70.0746 74.2969 69.9325 74.1634C69.7933 74.0298 69.7237 73.8693 69.7237 73.6818C69.7237 73.4943 69.7933 73.3338 69.9325 73.2003C70.0746 73.0668 70.2436 73 70.4396 73C70.6357 73 70.8033 73.0668 70.9425 73.2003C71.0845 73.3338 71.1555 73.4943 71.1555 73.6818C71.1555 73.8693 71.0845 74.0298 70.9425 74.1634C70.8033 74.2969 70.6357 74.3636 70.4396 74.3636ZM73.7816 78.0625V82H72.7759V75.4545H73.7475V76.4773H73.8327C73.9862 76.1449 74.2191 75.8778 74.5316 75.6761C74.8441 75.4716 75.2475 75.3693 75.7418 75.3693C76.185 75.3693 76.5728 75.4602 76.9052 75.642C77.2376 75.821 77.4961 76.0938 77.6808 76.4602C77.8654 76.8239 77.9577 77.2841 77.9577 77.8409V82H76.9521V77.9091C76.9521 77.3949 76.8185 76.9943 76.5515 76.7074C76.2844 76.4176 75.918 76.2727 75.4521 76.2727C75.131 76.2727 74.8441 76.3423 74.5913 76.4815C74.3413 76.6207 74.1438 76.8239 73.9989 77.0909C73.854 77.358 73.7816 77.6818 73.7816 78.0625ZM82.4375 84.5909C81.9517 84.5909 81.5341 84.5284 81.1847 84.4034C80.8352 84.2812 80.544 84.1193 80.3111 83.9176C80.081 83.7188 79.8977 83.5057 79.7614 83.2784L80.5625 82.7159C80.6534 82.8352 80.7685 82.9716 80.9077 83.125C81.0469 83.2812 81.2372 83.4162 81.4787 83.5298C81.723 83.6463 82.0426 83.7045 82.4375 83.7045C82.9659 83.7045 83.402 83.5767 83.7457 83.321C84.0895 83.0653 84.2614 82.6648 84.2614 82.1193V80.7898H84.1761C84.1023 80.9091 83.9972 81.0568 83.8608 81.233C83.7273 81.4062 83.5341 81.5611 83.2812 81.6974C83.0312 81.831 82.6932 81.8977 82.267 81.8977C81.7386 81.8977 81.2642 81.7727 80.8438 81.5227C80.4261 81.2727 80.0952 80.9091 79.8509 80.4318C79.6094 79.9545 79.4886 79.375 79.4886 78.6932C79.4886 78.0227 79.6065 77.4389 79.8423 76.9418C80.0781 76.4418 80.4063 76.0554 80.8267 75.7827C81.2472 75.5071 81.733 75.3693 82.2841 75.3693C82.7102 75.3693 83.0483 75.4403 83.2983 75.5824C83.5511 75.7216 83.7443 75.8807 83.8778 76.0597C84.0142 76.2358 84.1193 76.3807 84.1932 76.4943H84.2955V75.4545H85.267V82.1875C85.267 82.75 85.1392 83.2074 84.8835 83.5597C84.6307 83.9148 84.2898 84.1747 83.8608 84.3395C83.4347 84.5071 82.9602 84.5909 82.4375 84.5909ZM82.4034 80.9943C82.8068 80.9943 83.1477 80.902 83.4261 80.7173C83.7045 80.5327 83.9162 80.267 84.0611 79.9205C84.206 79.5739 84.2784 79.1591 84.2784 78.6761C84.2784 78.2045 84.2074 77.7884 84.0653 77.4276C83.9233 77.0668 83.7131 76.7841 83.4347 76.5795C83.1563 76.375 82.8125 76.2727 82.4034 76.2727C81.9773 76.2727 81.6222 76.3807 81.3381 76.5966C81.0568 76.8125 80.8452 77.1023 80.7031 77.4659C80.5639 77.8295 80.4943 78.233 80.4943 78.6761C80.4943 79.1307 80.5653 79.5327 80.7074 79.8821C80.8523 80.2287 81.0653 80.5014 81.3466 80.7003C81.6307 80.8963 81.983 80.9943 82.4034 80.9943ZM93.3295 75.4545V76.3068H89.9375V75.4545H93.3295ZM90.9261 73.8864H91.9318V80.125C91.9318 80.4091 91.973 80.6222 92.0554 80.7642C92.1406 80.9034 92.2486 80.9972 92.3793 81.0455C92.5128 81.0909 92.6534 81.1136 92.8011 81.1136C92.9119 81.1136 93.0028 81.108 93.0739 81.0966C93.1449 81.0824 93.2017 81.071 93.2443 81.0625L93.4489 81.9659C93.3807 81.9915 93.2855 82.017 93.1634 82.0426C93.0412 82.071 92.8864 82.0852 92.6989 82.0852C92.4148 82.0852 92.1364 82.0241 91.8636 81.902C91.5938 81.7798 91.3693 81.5938 91.1903 81.3438C91.0142 81.0938 90.9261 80.7784 90.9261 80.3977V73.8864ZM97.4311 82.1364C96.8402 82.1364 96.3217 81.9957 95.8757 81.7145C95.4325 81.4332 95.0859 81.0398 94.8359 80.5341C94.5888 80.0284 94.4652 79.4375 94.4652 78.7614C94.4652 78.0795 94.5888 77.4844 94.8359 76.9759C95.0859 76.4673 95.4325 76.0724 95.8757 75.7912C96.3217 75.5099 96.8402 75.3693 97.4311 75.3693C98.022 75.3693 98.5391 75.5099 98.9822 75.7912C99.4283 76.0724 99.7749 76.4673 100.022 76.9759C100.272 77.4844 100.397 78.0795 100.397 78.7614C100.397 79.4375 100.272 80.0284 100.022 80.5341C99.7749 81.0398 99.4283 81.4332 98.9822 81.7145C98.5391 81.9957 98.022 82.1364 97.4311 82.1364ZM97.4311 81.233C97.88 81.233 98.2493 81.1179 98.5391 80.8878C98.8288 80.6577 99.0433 80.3551 99.1825 79.9801C99.3217 79.6051 99.3913 79.1989 99.3913 78.7614C99.3913 78.3239 99.3217 77.9162 99.1825 77.5384C99.0433 77.1605 98.8288 76.8551 98.5391 76.6222C98.2493 76.3892 97.88 76.2727 97.4311 76.2727C96.9822 76.2727 96.6129 76.3892 96.3232 76.6222C96.0334 76.8551 95.8189 77.1605 95.6797 77.5384C95.5405 77.9162 95.4709 78.3239 95.4709 78.7614C95.4709 79.1989 95.5405 79.6051 95.6797 79.9801C95.8189 80.3551 96.0334 80.6577 96.3232 80.8878C96.6129 81.1179 96.9822 81.233 97.4311 81.233ZM104.404 82.1364C103.858 82.1364 103.377 81.9986 102.959 81.723C102.542 81.4446 102.215 81.0526 101.979 80.5469C101.743 80.0384 101.625 79.4375 101.625 78.7443C101.625 78.0568 101.743 77.4602 101.979 76.9545C102.215 76.4489 102.543 76.0582 102.963 75.7827C103.384 75.5071 103.87 75.3693 104.421 75.3693C104.847 75.3693 105.184 75.4403 105.431 75.5824C105.681 75.7216 105.871 75.8807 106.002 76.0597C106.135 76.2358 106.239 76.3807 106.313 76.4943H106.398V73.2727H107.404V82H106.432V80.9943H106.313C106.239 81.1136 106.134 81.2642 105.998 81.446C105.861 81.625 105.667 81.7855 105.414 81.9276C105.161 82.0668 104.824 82.1364 104.404 82.1364ZM104.54 81.233C104.944 81.233 105.284 81.1278 105.563 80.9176C105.841 80.7045 106.053 80.4105 106.198 80.0355C106.343 79.6577 106.415 79.2216 106.415 78.7273C106.415 78.2386 106.344 77.8111 106.202 77.4446C106.06 77.0753 105.85 76.7884 105.571 76.5838C105.293 76.3764 104.949 76.2727 104.54 76.2727C104.114 76.2727 103.759 76.3821 103.475 76.6009C103.194 76.8168 102.982 77.1108 102.84 77.483C102.701 77.8523 102.631 78.267 102.631 78.7273C102.631 79.1932 102.702 79.6165 102.844 79.9972C102.989 80.375 103.202 80.6761 103.483 80.9006C103.767 81.1222 104.12 81.233 104.54 81.233ZM111.311 82.1534C110.897 82.1534 110.52 82.0753 110.182 81.919C109.844 81.7599 109.576 81.5312 109.377 81.233C109.178 80.9318 109.078 80.5682 109.078 80.142C109.078 79.767 109.152 79.4631 109.3 79.2301C109.448 78.9943 109.645 78.8097 109.892 78.6761C110.14 78.5426 110.412 78.4432 110.711 78.3778C111.012 78.3097 111.314 78.2557 111.618 78.2159C112.016 78.1648 112.338 78.1264 112.586 78.1009C112.836 78.0724 113.017 78.0256 113.131 77.9602C113.248 77.8949 113.306 77.7812 113.306 77.6193V77.5852C113.306 77.1648 113.191 76.8381 112.961 76.6051C112.733 76.3722 112.388 76.2557 111.925 76.2557C111.445 76.2557 111.069 76.3608 110.796 76.571C110.523 76.7812 110.331 77.0057 110.221 77.2443L109.266 76.9034C109.436 76.5057 109.664 76.196 109.948 75.9744C110.235 75.75 110.547 75.5937 110.885 75.5057C111.226 75.4148 111.561 75.3693 111.891 75.3693C112.101 75.3693 112.343 75.3949 112.615 75.446C112.891 75.4943 113.157 75.5952 113.412 75.7486C113.671 75.902 113.885 76.1335 114.056 76.4432C114.226 76.7528 114.311 77.1676 114.311 77.6875V82H113.306V81.1136H113.255C113.186 81.2557 113.073 81.4077 112.914 81.5696C112.755 81.7315 112.543 81.8693 112.279 81.983C112.015 82.0966 111.692 82.1534 111.311 82.1534ZM111.465 81.25C111.863 81.25 112.198 81.1719 112.471 81.0156C112.746 80.8594 112.953 80.6577 113.093 80.4105C113.235 80.1634 113.306 79.9034 113.306 79.6307V78.7102C113.263 78.7614 113.169 78.8082 113.025 78.8509C112.882 78.8906 112.718 78.9261 112.53 78.9574C112.346 78.9858 112.165 79.0114 111.989 79.0341C111.816 79.054 111.675 79.071 111.567 79.0852C111.306 79.1193 111.061 79.1747 110.834 79.2514C110.61 79.3253 110.428 79.4375 110.289 79.5881C110.152 79.7358 110.084 79.9375 110.084 80.1932C110.084 80.5426 110.213 80.8068 110.472 80.9858C110.733 81.1619 111.064 81.25 111.465 81.25ZM116.56 84.4545C116.39 84.4545 116.238 84.4403 116.104 84.4119C115.971 84.3864 115.879 84.3608 115.827 84.3352L116.083 83.4489C116.327 83.5114 116.543 83.5341 116.731 83.517C116.918 83.5 117.085 83.4162 117.229 83.2656C117.377 83.1179 117.512 82.8778 117.634 82.5455L117.822 82.0341L115.401 75.4545H116.492L118.299 80.6705H118.367L120.174 75.4545H121.265L118.487 82.9545C118.362 83.2926 118.207 83.5724 118.022 83.794C117.837 84.0185 117.623 84.1847 117.379 84.2926C117.137 84.4006 116.864 84.4545 116.56 84.4545Z" fill="#BDBDBD"/>
<circle cx="318" cy="48" r="12" fill="#4F4F4F"/>
<rect x="316" y="45.3333" width="3.99999" height="10.6666" rx="2" fill="#1E1E1E"/>
<rect x="316" y="40" width="3.99999" height="3.99999" rx="2" fill="#1E1E1E"/>
<rect x="60.0939" y="143.635" width="258.492" height="166.212" stroke="#4F4F4F" stroke-dasharray="1 1"/>
<path d="M60.0001 164H319.492" stroke="#4F4F4F" stroke-dasharray="2 2"/>
<path d="M60.0001 185H319.492" stroke="#4F4F4F" stroke-dasharray="2 2"/>
<path d="M60.0001 206H319.492" stroke="#4F4F4F" stroke-dasharray="2 2"/>
<path d="M60.0001 248H319.492" stroke="#4F4F4F" stroke-dasharray="2 2"/>
<path d="M60.0001 290H319.492" stroke="#4F4F4F" stroke-dasharray="2 2"/>
<path d="M60.0001 269H319.492" stroke="#4F4F4F" stroke-dasharray="2 2"/>
<path d="M60.0001 227H319.492" stroke="#4F4F4F" stroke-dasharray="2 2"/>
<path d="M118 143.135L118 310.346" stroke="#4F4F4F" stroke-dasharray="2 2"/>
<path d="M189 143.135L189 310.346" stroke="#4F4F4F" stroke-dasharray="2 2"/>
<path d="M260 143.135L260 310.346" stroke="#4F4F4F" stroke-dasharray="2 2"/>
<path d="M51.1876 309.089C50.7061 309.089 50.2959 308.958 49.9572 308.696C49.6184 308.432 49.3595 308.05 49.1805 307.549C49.0015 307.046 48.9121 306.439 48.9121 305.727C48.9121 305.02 49.0015 304.416 49.1805 303.915C49.3616 303.412 49.6216 303.029 49.9603 302.765C50.3013 302.498 50.7103 302.365 51.1876 302.365C51.6649 302.365 52.0729 302.498 52.4117 302.765C52.7526 303.029 53.0126 303.412 53.1915 303.915C53.3726 304.416 53.4632 305.02 53.4632 305.727C53.4632 306.439 53.3737 307.046 53.1947 307.549C53.0157 308.05 52.7569 308.432 52.4181 308.696C52.0793 308.958 51.6692 309.089 51.1876 309.089ZM51.1876 308.386C51.6649 308.386 52.0356 308.156 52.2998 307.696C52.564 307.236 52.6961 306.58 52.6961 305.727C52.6961 305.161 52.6354 304.678 52.514 304.279C52.3947 303.881 52.2221 303.577 51.9962 303.369C51.7725 303.16 51.503 303.055 51.1876 303.055C50.7146 303.055 50.3449 303.289 50.0786 303.755C49.8123 304.22 49.6791 304.877 49.6791 305.727C49.6791 306.294 49.7388 306.776 49.8581 307.172C49.9774 307.568 50.1489 307.87 50.3726 308.076C50.5985 308.283 50.8702 308.386 51.1876 308.386Z" fill="white"/>
<path d="M35.9202 282.455V289H35.1276V283.286H35.0893L33.4912 284.347V283.541L35.1276 282.455H35.9202ZM39.9376 289.089C39.4561 289.089 39.0459 288.958 38.7072 288.696C38.3684 288.432 38.1095 288.05 37.9305 287.549C37.7515 287.046 37.6621 286.439 37.6621 285.727C37.6621 285.02 37.7515 284.416 37.9305 283.915C38.1116 283.412 38.3716 283.029 38.7103 282.765C39.0513 282.498 39.4603 282.365 39.9376 282.365C40.4149 282.365 40.8229 282.498 41.1617 282.765C41.5026 283.029 41.7626 283.412 41.9415 283.915C42.1226 284.416 42.2132 285.02 42.2132 285.727C42.2132 286.439 42.1237 287.046 41.9447 287.549C41.7657 288.05 41.5069 288.432 41.1681 288.696C40.8293 288.958 40.4192 289.089 39.9376 289.089ZM39.9376 288.386C40.4149 288.386 40.7856 288.156 41.0498 287.696C41.314 287.236 41.4461 286.58 41.4461 285.727C41.4461 285.161 41.3854 284.678 41.264 284.279C41.1447 283.881 40.9721 283.577 40.7462 283.369C40.5225 283.16 40.253 283.055 39.9376 283.055C39.4646 283.055 39.0949 283.289 38.8286 283.755C38.5623 284.22 38.4291 284.877 38.4291 285.727C38.4291 286.294 38.4888 286.776 38.6081 287.172C38.7274 287.568 38.8989 287.87 39.1226 288.076C39.3485 288.283 39.6202 288.386 39.9376 288.386ZM45.5626 289.089C45.0811 289.089 44.6709 288.958 44.3322 288.696C43.9934 288.432 43.7345 288.05 43.5555 287.549C43.3765 287.046 43.2871 286.439 43.2871 285.727C43.2871 285.02 43.3765 284.416 43.5555 283.915C43.7366 283.412 43.9966 283.029 44.3353 282.765C44.6763 282.498 45.0853 282.365 45.5626 282.365C46.0399 282.365 46.4479 282.498 46.7867 282.765C47.1276 283.029 47.3876 283.412 47.5665 283.915C47.7476 284.416 47.8382 285.02 47.8382 285.727C47.8382 286.439 47.7487 287.046 47.5697 287.549C47.3907 288.05 47.1319 288.432 46.7931 288.696C46.4543 288.958 46.0442 289.089 45.5626 289.089ZM45.5626 288.386C46.0399 288.386 46.4106 288.156 46.6748 287.696C46.939 287.236 47.0711 286.58 47.0711 285.727C47.0711 285.161 47.0104 284.678 46.889 284.279C46.7697 283.881 46.5971 283.577 46.3712 283.369C46.1475 283.16 45.878 283.055 45.5626 283.055C45.0896 283.055 44.7199 283.289 44.4536 283.755C44.1873 284.22 44.0541 284.877 44.0541 285.727C44.0541 286.294 44.1138 286.776 44.2331 287.172C44.3524 287.568 44.5239 287.87 44.7476 288.076C44.9735 288.283 45.2452 288.386 45.5626 288.386ZM51.1876 289.089C50.7061 289.089 50.2959 288.958 49.9572 288.696C49.6184 288.432 49.3595 288.05 49.1805 287.549C49.0015 287.046 48.9121 286.439 48.9121 285.727C48.9121 285.02 49.0015 284.416 49.1805 283.915C49.3616 283.412 49.6216 283.029 49.9603 282.765C50.3013 282.498 50.7103 282.365 51.1876 282.365C51.6649 282.365 52.0729 282.498 52.4117 282.765C52.7526 283.029 53.0126 283.412 53.1915 283.915C53.3726 284.416 53.4632 285.02 53.4632 285.727C53.4632 286.439 53.3737 287.046 53.1947 287.549C53.0157 288.05 52.7569 288.432 52.4181 288.696C52.0793 288.958 51.6692 289.089 51.1876 289.089ZM51.1876 288.386C51.6649 288.386 52.0356 288.156 52.2998 287.696C52.564 287.236 52.6961 286.58 52.6961 285.727C52.6961 285.161 52.6354 284.678 52.514 284.279C52.3947 283.881 52.2221 283.577 51.9962 283.369C51.7725 283.16 51.503 283.055 51.1876 283.055C50.7146 283.055 50.3449 283.289 50.0786 283.755C49.8123 284.22 49.6791 284.877 49.6791 285.727C49.6791 286.294 49.7388 286.776 49.8581 287.172C49.9774 287.568 50.1489 287.87 50.3726 288.076C50.5985 288.283 50.8702 288.386 51.1876 288.386Z" fill="white"/>
<path d="M32.3535 268V267.425L34.514 265.06C34.7675 264.783 34.9763 264.542 35.1404 264.337C35.3045 264.131 35.4259 263.937 35.5047 263.756C35.5857 263.572 35.6262 263.381 35.6262 263.18C35.6262 262.95 35.5708 262.751 35.46 262.583C35.3513 262.414 35.2022 262.284 35.0126 262.193C34.8229 262.101 34.6099 262.055 34.3733 262.055C34.1219 262.055 33.9025 262.108 33.715 262.212C33.5296 262.314 33.3858 262.458 33.2835 262.643C33.1834 262.829 33.1333 263.046 33.1333 263.295H32.379C32.379 262.912 32.4675 262.575 32.6443 262.286C32.8211 261.996 33.0619 261.77 33.3666 261.608C33.6734 261.446 34.0175 261.365 34.3989 261.365C34.7824 261.365 35.1223 261.446 35.4184 261.608C35.7146 261.77 35.9469 261.988 36.1152 262.263C36.2835 262.538 36.3677 262.844 36.3677 263.18C36.3677 263.421 36.324 263.657 36.2366 263.887C36.1514 264.115 36.0023 264.369 35.7892 264.651C35.5782 264.93 35.2853 265.271 34.9103 265.673L33.4401 267.246V267.297H36.4827V268H32.3535ZM39.9376 268.089C39.4561 268.089 39.0459 267.958 38.7072 267.696C38.3684 267.432 38.1095 267.05 37.9305 266.549C37.7515 266.046 37.6621 265.439 37.6621 264.727C37.6621 264.02 37.7515 263.416 37.9305 262.915C38.1116 262.412 38.3716 262.029 38.7103 261.765C39.0513 261.498 39.4603 261.365 39.9376 261.365C40.4149 261.365 40.8229 261.498 41.1617 261.765C41.5026 262.029 41.7626 262.412 41.9415 262.915C42.1226 263.416 42.2132 264.02 42.2132 264.727C42.2132 265.439 42.1237 266.046 41.9447 266.549C41.7657 267.05 41.5069 267.432 41.1681 267.696C40.8293 267.958 40.4192 268.089 39.9376 268.089ZM39.9376 267.386C40.4149 267.386 40.7856 267.156 41.0498 266.696C41.314 266.236 41.4461 265.58 41.4461 264.727C41.4461 264.161 41.3854 263.678 41.264 263.279C41.1447 262.881 40.9721 262.577 40.7462 262.369C40.5225 262.16 40.253 262.055 39.9376 262.055C39.4646 262.055 39.0949 262.289 38.8286 262.755C38.5623 263.22 38.4291 263.877 38.4291 264.727C38.4291 265.294 38.4888 265.776 38.6081 266.172C38.7274 266.568 38.8989 266.87 39.1226 267.076C39.3485 267.283 39.6202 267.386 39.9376 267.386ZM45.5626 268.089C45.0811 268.089 44.6709 267.958 44.3322 267.696C43.9934 267.432 43.7345 267.05 43.5555 266.549C43.3765 266.046 43.2871 265.439 43.2871 264.727C43.2871 264.02 43.3765 263.416 43.5555 262.915C43.7366 262.412 43.9966 262.029 44.3353 261.765C44.6763 261.498 45.0853 261.365 45.5626 261.365C46.0399 261.365 46.4479 261.498 46.7867 261.765C47.1276 262.029 47.3876 262.412 47.5665 262.915C47.7476 263.416 47.8382 264.02 47.8382 264.727C47.8382 265.439 47.7487 266.046 47.5697 266.549C47.3907 267.05 47.1319 267.432 46.7931 267.696C46.4543 267.958 46.0442 268.089 45.5626 268.089ZM45.5626 267.386C46.0399 267.386 46.4106 267.156 46.6748 266.696C46.939 266.236 47.0711 265.58 47.0711 264.727C47.0711 264.161 47.0104 263.678 46.889 263.279C46.7697 262.881 46.5971 262.577 46.3712 262.369C46.1475 262.16 45.878 262.055 45.5626 262.055C45.0896 262.055 44.7199 262.289 44.4536 262.755C44.1873 263.22 44.0541 263.877 44.0541 264.727C44.0541 265.294 44.1138 265.776 44.2331 266.172C44.3524 266.568 44.5239 266.87 44.7476 267.076C44.9735 267.283 45.2452 267.386 45.5626 267.386ZM51.1876 268.089C50.7061 268.089 50.2959 267.958 49.9572 267.696C49.6184 267.432 49.3595 267.05 49.1805 266.549C49.0015 266.046 48.9121 265.439 48.9121 264.727C48.9121 264.02 49.0015 263.416 49.1805 262.915C49.3616 262.412 49.6216 262.029 49.9603 261.765C50.3013 261.498 50.7103 261.365 51.1876 261.365C51.6649 261.365 52.0729 261.498 52.4117 261.765C52.7526 262.029 53.0126 262.412 53.1915 262.915C53.3726 263.416 53.4632 264.02 53.4632 264.727C53.4632 265.439 53.3737 266.046 53.1947 266.549C53.0157 267.05 52.7569 267.432 52.4181 267.696C52.0793 267.958 51.6692 268.089 51.1876 268.089ZM51.1876 267.386C51.6649 267.386 52.0356 267.156 52.2998 266.696C52.564 266.236 52.6961 265.58 52.6961 264.727C52.6961 264.161 52.6354 263.678 52.514 263.279C52.3947 262.881 52.2221 262.577 51.9962 262.369C51.7725 262.16 51.503 262.055 51.1876 262.055C50.7146 262.055 50.3449 262.289 50.0786 262.755C49.8123 263.22 49.6791 263.877 49.6791 264.727C49.6791 265.294 49.7388 265.776 49.8581 266.172C49.9774 266.568 50.1489 266.87 50.3726 267.076C50.5985 267.283 50.8702 267.386 51.1876 267.386Z" fill="white"/>
<path d="M34.2839 247.089C33.862 247.089 33.4859 247.017 33.1557 246.872C32.8275 246.727 32.5665 246.526 32.3726 246.268C32.1809 246.008 32.0765 245.707 32.0594 245.364H32.8648C32.8819 245.575 32.9543 245.757 33.0822 245.91C33.21 246.061 33.3773 246.179 33.5839 246.262C33.7906 246.345 34.0197 246.386 34.2711 246.386C34.5523 246.386 34.8016 246.337 35.0189 246.239C35.2363 246.141 35.4067 246.005 35.5303 245.83C35.6539 245.656 35.7157 245.453 35.7157 245.223C35.7157 244.982 35.656 244.77 35.5367 244.587C35.4174 244.402 35.2427 244.257 35.0126 244.152C34.7824 244.048 34.5012 243.996 34.1688 243.996H33.6447V243.293H34.1688C34.4287 243.293 34.6567 243.246 34.8528 243.152C35.0509 243.058 35.2054 242.926 35.3162 242.756C35.4291 242.585 35.4856 242.385 35.4856 242.155C35.4856 241.933 35.4366 241.74 35.3385 241.576C35.2405 241.412 35.102 241.284 34.9231 241.193C34.7462 241.101 34.5374 241.055 34.2966 241.055C34.0708 241.055 33.8577 241.097 33.6574 241.18C33.4593 241.261 33.2974 241.379 33.1716 241.535C33.0459 241.688 32.9777 241.874 32.9671 242.091H32.2001C32.2128 241.748 32.3162 241.447 32.5101 241.19C32.704 240.93 32.9575 240.727 33.2707 240.582C33.5861 240.437 33.9323 240.365 34.3094 240.365C34.7143 240.365 35.0616 240.447 35.3513 240.611C35.6411 240.773 35.8638 240.987 36.0193 241.254C36.1748 241.52 36.2526 241.808 36.2526 242.116C36.2526 242.485 36.1557 242.799 35.9618 243.059C35.77 243.319 35.509 243.499 35.1787 243.599V243.651C35.5921 243.719 35.9149 243.895 36.1471 244.178C36.3794 244.459 36.4955 244.808 36.4955 245.223C36.4955 245.579 36.3986 245.898 36.2047 246.182C36.0129 246.463 35.7508 246.685 35.4184 246.847C35.0861 247.009 34.7079 247.089 34.2839 247.089ZM39.9376 247.089C39.4561 247.089 39.0459 246.958 38.7072 246.696C38.3684 246.432 38.1095 246.05 37.9305 245.549C37.7515 245.046 37.6621 244.439 37.6621 243.727C37.6621 243.02 37.7515 242.416 37.9305 241.915C38.1116 241.412 38.3716 241.029 38.7103 240.765C39.0513 240.498 39.4603 240.365 39.9376 240.365C40.4149 240.365 40.8229 240.498 41.1617 240.765C41.5026 241.029 41.7626 241.412 41.9415 241.915C42.1226 242.416 42.2132 243.02 42.2132 243.727C42.2132 244.439 42.1237 245.046 41.9447 245.549C41.7657 246.05 41.5069 246.432 41.1681 246.696C40.8293 246.958 40.4192 247.089 39.9376 247.089ZM39.9376 246.386C40.4149 246.386 40.7856 246.156 41.0498 245.696C41.314 245.236 41.4461 244.58 41.4461 243.727C41.4461 243.161 41.3854 242.678 41.264 242.279C41.1447 241.881 40.9721 241.577 40.7462 241.369C40.5225 241.16 40.253 241.055 39.9376 241.055C39.4646 241.055 39.0949 241.289 38.8286 241.755C38.5623 242.22 38.4291 242.877 38.4291 243.727C38.4291 244.294 38.4888 244.776 38.6081 245.172C38.7274 245.568 38.8989 245.87 39.1226 246.076C39.3485 246.283 39.6202 246.386 39.9376 246.386ZM45.5626 247.089C45.0811 247.089 44.6709 246.958 44.3322 246.696C43.9934 246.432 43.7345 246.05 43.5555 245.549C43.3765 245.046 43.2871 244.439 43.2871 243.727C43.2871 243.02 43.3765 242.416 43.5555 241.915C43.7366 241.412 43.9966 241.029 44.3353 240.765C44.6763 240.498 45.0853 240.365 45.5626 240.365C46.0399 240.365 46.4479 240.498 46.7867 240.765C47.1276 241.029 47.3876 241.412 47.5665 241.915C47.7476 242.416 47.8382 243.02 47.8382 243.727C47.8382 244.439 47.7487 245.046 47.5697 245.549C47.3907 246.05 47.1319 246.432 46.7931 246.696C46.4543 246.958 46.0442 247.089 45.5626 247.089ZM45.5626 246.386C46.0399 246.386 46.4106 246.156 46.6748 245.696C46.939 245.236 47.0711 244.58 47.0711 243.727C47.0711 243.161 47.0104 242.678 46.889 242.279C46.7697 241.881 46.5971 241.577 46.3712 241.369C46.1475 241.16 45.878 241.055 45.5626 241.055C45.0896 241.055 44.7199 241.289 44.4536 241.755C44.1873 242.22 44.0541 242.877 44.0541 243.727C44.0541 244.294 44.1138 244.776 44.2331 245.172C44.3524 245.568 44.5239 245.87 44.7476 246.076C44.9735 246.283 45.2452 246.386 45.5626 246.386ZM51.1876 247.089C50.7061 247.089 50.2959 246.958 49.9572 246.696C49.6184 246.432 49.3595 246.05 49.1805 245.549C49.0015 245.046 48.9121 244.439 48.9121 243.727C48.9121 243.02 49.0015 242.416 49.1805 241.915C49.3616 241.412 49.6216 241.029 49.9603 240.765C50.3013 240.498 50.7103 240.365 51.1876 240.365C51.6649 240.365 52.0729 240.498 52.4117 240.765C52.7526 241.029 53.0126 241.412 53.1915 241.915C53.3726 242.416 53.4632 243.02 53.4632 243.727C53.4632 244.439 53.3737 245.046 53.1947 245.549C53.0157 246.05 52.7569 246.432 52.4181 246.696C52.0793 246.958 51.6692 247.089 51.1876 247.089ZM51.1876 246.386C51.6649 246.386 52.0356 246.156 52.2998 245.696C52.564 245.236 52.6961 244.58 52.6961 243.727C52.6961 243.161 52.6354 242.678 52.514 242.279C52.3947 241.881 52.2221 241.577 51.9962 241.369C51.7725 241.16 51.503 241.055 51.1876 241.055C50.7146 241.055 50.3449 241.289 50.0786 241.755C49.8123 242.22 49.6791 242.877 49.6791 243.727C49.6791 244.294 49.7388 244.776 49.8581 245.172C49.9774 245.568 50.1489 245.87 50.3726 246.076C50.5985 246.283 50.8702 246.386 51.1876 246.386Z" fill="white"/>
<path d="M31.8749 224.658V224.006L34.7513 219.455H35.2243V220.464H34.9047L32.7314 223.903V223.955H36.605V224.658H31.8749ZM34.9558 226V224.46V224.156V219.455H35.7101V226H34.9558ZM39.9376 226.089C39.4561 226.089 39.0459 225.958 38.7072 225.696C38.3684 225.432 38.1095 225.05 37.9305 224.549C37.7515 224.046 37.6621 223.439 37.6621 222.727C37.6621 222.02 37.7515 221.416 37.9305 220.915C38.1116 220.412 38.3716 220.029 38.7103 219.765C39.0513 219.498 39.4603 219.365 39.9376 219.365C40.4149 219.365 40.8229 219.498 41.1617 219.765C41.5026 220.029 41.7626 220.412 41.9415 220.915C42.1226 221.416 42.2132 222.02 42.2132 222.727C42.2132 223.439 42.1237 224.046 41.9447 224.549C41.7657 225.05 41.5069 225.432 41.1681 225.696C40.8293 225.958 40.4192 226.089 39.9376 226.089ZM39.9376 225.386C40.4149 225.386 40.7856 225.156 41.0498 224.696C41.314 224.236 41.4461 223.58 41.4461 222.727C41.4461 222.161 41.3854 221.678 41.264 221.279C41.1447 220.881 40.9721 220.577 40.7462 220.369C40.5225 220.16 40.253 220.055 39.9376 220.055C39.4646 220.055 39.0949 220.289 38.8286 220.755C38.5623 221.22 38.4291 221.877 38.4291 222.727C38.4291 223.294 38.4888 223.776 38.6081 224.172C38.7274 224.568 38.8989 224.87 39.1226 225.076C39.3485 225.283 39.6202 225.386 39.9376 225.386ZM45.5626 226.089C45.0811 226.089 44.6709 225.958 44.3322 225.696C43.9934 225.432 43.7345 225.05 43.5555 224.549C43.3765 224.046 43.2871 223.439 43.2871 222.727C43.2871 222.02 43.3765 221.416 43.5555 220.915C43.7366 220.412 43.9966 220.029 44.3353 219.765C44.6763 219.498 45.0853 219.365 45.5626 219.365C46.0399 219.365 46.4479 219.498 46.7867 219.765C47.1276 220.029 47.3876 220.412 47.5665 220.915C47.7476 221.416 47.8382 222.02 47.8382 222.727C47.8382 223.439 47.7487 224.046 47.5697 224.549C47.3907 225.05 47.1319 225.432 46.7931 225.696C46.4543 225.958 46.0442 226.089 45.5626 226.089ZM45.5626 225.386C46.0399 225.386 46.4106 225.156 46.6748 224.696C46.939 224.236 47.0711 223.58 47.0711 222.727C47.0711 222.161 47.0104 221.678 46.889 221.279C46.7697 220.881 46.5971 220.577 46.3712 220.369C46.1475 220.16 45.878 220.055 45.5626 220.055C45.0896 220.055 44.7199 220.289 44.4536 220.755C44.1873 221.22 44.0541 221.877 44.0541 222.727C44.0541 223.294 44.1138 223.776 44.2331 224.172C44.3524 224.568 44.5239 224.87 44.7476 225.076C44.9735 225.283 45.2452 225.386 45.5626 225.386ZM51.1876 226.089C50.7061 226.089 50.2959 225.958 49.9572 225.696C49.6184 225.432 49.3595 225.05 49.1805 224.549C49.0015 224.046 48.9121 223.439 48.9121 222.727C48.9121 222.02 49.0015 221.416 49.1805 220.915C49.3616 220.412 49.6216 220.029 49.9603 219.765C50.3013 219.498 50.7103 219.365 51.1876 219.365C51.6649 219.365 52.0729 219.498 52.4117 219.765C52.7526 220.029 53.0126 220.412 53.1915 220.915C53.3726 221.416 53.4632 222.02 53.4632 222.727C53.4632 223.439 53.3737 224.046 53.1947 224.549C53.0157 225.05 52.7569 225.432 52.4181 225.696C52.0793 225.958 51.6692 226.089 51.1876 226.089ZM51.1876 225.386C51.6649 225.386 52.0356 225.156 52.2998 224.696C52.564 224.236 52.6961 223.58 52.6961 222.727C52.6961 222.161 52.6354 221.678 52.514 221.279C52.3947 220.881 52.2221 220.577 51.9962 220.369C51.7725 220.16 51.503 220.055 51.1876 220.055C50.7146 220.055 50.3449 220.289 50.0786 220.755C49.8123 221.22 49.6791 221.877 49.6791 222.727C49.6791 223.294 49.7388 223.776 49.8581 224.172C49.9774 224.568 50.1489 224.87 50.3726 225.076C50.5985 225.283 50.8702 225.386 51.1876 225.386Z" fill="white"/>
<path d="M34.3725 206.089C33.9975 206.089 33.6598 206.015 33.3594 205.866C33.059 205.717 32.8182 205.512 32.6371 205.252C32.456 204.992 32.3569 204.696 32.3399 204.364H33.1069C33.1368 204.66 33.271 204.905 33.5096 205.099C33.7504 205.29 34.038 205.386 34.3725 205.386C34.641 205.386 34.8796 205.324 35.0885 205.198C35.2994 205.072 35.4645 204.9 35.5838 204.68C35.7053 204.458 35.766 204.208 35.766 203.929C35.766 203.643 35.7032 203.389 35.5774 203.165C35.4539 202.939 35.2834 202.761 35.0661 202.631C34.8488 202.501 34.6005 202.435 34.3214 202.433C34.1211 202.431 33.9155 202.462 33.7046 202.526C33.4936 202.588 33.32 202.668 33.1836 202.766L32.4421 202.676L32.8385 199.455H36.239V200.158H33.5032L33.2731 202.088H33.3115C33.4457 201.982 33.614 201.893 33.8164 201.823C34.0189 201.752 34.2298 201.717 34.4493 201.717C34.8498 201.717 35.2067 201.813 35.5199 202.005C35.8353 202.195 36.0824 202.455 36.2614 202.785C36.4425 203.115 36.5331 203.492 36.5331 203.916C36.5331 204.334 36.4393 204.707 36.2518 205.035C36.0664 205.361 35.8108 205.619 35.4848 205.808C35.1588 205.996 34.788 206.089 34.3725 206.089ZM39.9376 206.089C39.4561 206.089 39.0459 205.958 38.7072 205.696C38.3684 205.432 38.1095 205.05 37.9305 204.549C37.7515 204.046 37.6621 203.439 37.6621 202.727C37.6621 202.02 37.7515 201.416 37.9305 200.915C38.1116 200.412 38.3716 200.029 38.7103 199.765C39.0513 199.498 39.4603 199.365 39.9376 199.365C40.4149 199.365 40.8229 199.498 41.1617 199.765C41.5026 200.029 41.7626 200.412 41.9415 200.915C42.1226 201.416 42.2132 202.02 42.2132 202.727C42.2132 203.439 42.1237 204.046 41.9447 204.549C41.7657 205.05 41.5069 205.432 41.1681 205.696C40.8293 205.958 40.4192 206.089 39.9376 206.089ZM39.9376 205.386C40.4149 205.386 40.7856 205.156 41.0498 204.696C41.314 204.236 41.4461 203.58 41.4461 202.727C41.4461 202.161 41.3854 201.678 41.264 201.279C41.1447 200.881 40.9721 200.577 40.7462 200.369C40.5225 200.16 40.253 200.055 39.9376 200.055C39.4646 200.055 39.0949 200.289 38.8286 200.755C38.5623 201.22 38.4291 201.877 38.4291 202.727C38.4291 203.294 38.4888 203.776 38.6081 204.172C38.7274 204.568 38.8989 204.87 39.1226 205.076C39.3485 205.283 39.6202 205.386 39.9376 205.386ZM45.5626 206.089C45.0811 206.089 44.6709 205.958 44.3322 205.696C43.9934 205.432 43.7345 205.05 43.5555 204.549C43.3765 204.046 43.2871 203.439 43.2871 202.727C43.2871 202.02 43.3765 201.416 43.5555 200.915C43.7366 200.412 43.9966 200.029 44.3353 199.765C44.6763 199.498 45.0853 199.365 45.5626 199.365C46.0399 199.365 46.4479 199.498 46.7867 199.765C47.1276 200.029 47.3876 200.412 47.5665 200.915C47.7476 201.416 47.8382 202.02 47.8382 202.727C47.8382 203.439 47.7487 204.046 47.5697 204.549C47.3907 205.05 47.1319 205.432 46.7931 205.696C46.4543 205.958 46.0442 206.089 45.5626 206.089ZM45.5626 205.386C46.0399 205.386 46.4106 205.156 46.6748 204.696C46.939 204.236 47.0711 203.58 47.0711 202.727C47.0711 202.161 47.0104 201.678 46.889 201.279C46.7697 200.881 46.5971 200.577 46.3712 200.369C46.1475 200.16 45.878 200.055 45.5626 200.055C45.0896 200.055 44.7199 200.289 44.4536 200.755C44.1873 201.22 44.0541 201.877 44.0541 202.727C44.0541 203.294 44.1138 203.776 44.2331 204.172C44.3524 204.568 44.5239 204.87 44.7476 205.076C44.9735 205.283 45.2452 205.386 45.5626 205.386ZM51.1876 206.089C50.7061 206.089 50.2959 205.958 49.9572 205.696C49.6184 205.432 49.3595 205.05 49.1805 204.549C49.0015 204.046 48.9121 203.439 48.9121 202.727C48.9121 202.02 49.0015 201.416 49.1805 200.915C49.3616 200.412 49.6216 200.029 49.9603 199.765C50.3013 199.498 50.7103 199.365 51.1876 199.365C51.6649 199.365 52.0729 199.498 52.4117 199.765C52.7526 200.029 53.0126 200.412 53.1915 200.915C53.3726 201.416 53.4632 202.02 53.4632 202.727C53.4632 203.439 53.3737 204.046 53.1947 204.549C53.0157 205.05 52.7569 205.432 52.4181 205.696C52.0793 205.958 51.6692 206.089 51.1876 206.089ZM51.1876 205.386C51.6649 205.386 52.0356 205.156 52.2998 204.696C52.564 204.236 52.6961 203.58 52.6961 202.727C52.6961 202.161 52.6354 201.678 52.514 201.279C52.3947 200.881 52.2221 200.577 51.9962 200.369C51.7725 200.16 51.503 200.055 51.1876 200.055C50.7146 200.055 50.3449 200.289 50.0786 200.755C49.8123 201.22 49.6791 201.877 49.6791 202.727C49.6791 203.294 49.7388 203.776 49.8581 204.172C49.9774 204.568 50.1489 204.87 50.3726 205.076C50.5985 205.283 50.8702 205.386 51.1876 205.386Z" fill="white"/>
<path d="M34.3598 184.089C34.0913 184.085 33.8228 184.034 33.5544 183.936C33.2859 183.838 33.0409 183.673 32.8193 183.441C32.5977 183.206 32.4198 182.89 32.2855 182.491C32.1513 182.091 32.0842 181.588 32.0842 180.983C32.0842 180.403 32.1385 179.89 32.2472 179.442C32.3559 178.993 32.5135 178.615 32.7202 178.308C32.9269 177.999 33.1762 177.765 33.4681 177.605C33.7621 177.445 34.0934 177.365 34.462 177.365C34.8285 177.365 35.1545 177.439 35.44 177.586C35.7277 177.73 35.962 177.933 36.1431 178.193C36.3243 178.453 36.4414 178.752 36.4947 179.091H35.7149C35.6424 178.797 35.5018 178.553 35.293 178.359C35.0842 178.165 34.8072 178.068 34.462 178.068C33.9549 178.068 33.5554 178.289 33.2635 178.73C32.9738 179.171 32.8278 179.79 32.8257 180.587H32.8768C32.9961 180.406 33.1378 180.251 33.3019 180.123C33.4681 179.993 33.6513 179.893 33.8516 179.823C34.0519 179.752 34.2639 179.717 34.4876 179.717C34.8626 179.717 35.2056 179.811 35.5167 179.999C35.8278 180.184 36.0771 180.441 36.2646 180.769C36.4521 181.095 36.5458 181.469 36.5458 181.891C36.5458 182.295 36.4553 182.666 36.2742 183.003C36.0931 183.337 35.8385 183.604 35.5103 183.802C35.1843 183.998 34.8008 184.094 34.3598 184.089ZM34.3598 183.386C34.6282 183.386 34.869 183.319 35.0821 183.185C35.2973 183.051 35.4667 182.871 35.5902 182.645C35.7159 182.419 35.7788 182.168 35.7788 181.891C35.7788 181.62 35.7181 181.374 35.5966 181.152C35.4773 180.929 35.3122 180.751 35.1012 180.619C34.8924 180.487 34.6538 180.42 34.3853 180.42C34.1829 180.42 33.9944 180.461 33.8196 180.542C33.6449 180.621 33.4915 180.729 33.3594 180.868C33.2294 181.006 33.1272 181.165 33.0526 181.344C32.978 181.521 32.9407 181.707 32.9407 181.903C32.9407 182.163 33.0015 182.406 33.1229 182.632C33.2465 182.858 33.4148 183.04 33.6279 183.179C33.8431 183.317 34.087 183.386 34.3598 183.386ZM39.9376 184.089C39.4561 184.089 39.0459 183.958 38.7072 183.696C38.3684 183.432 38.1095 183.05 37.9305 182.549C37.7515 182.046 37.6621 181.439 37.6621 180.727C37.6621 180.02 37.7515 179.416 37.9305 178.915C38.1116 178.412 38.3716 178.029 38.7103 177.765C39.0513 177.498 39.4603 177.365 39.9376 177.365C40.4149 177.365 40.8229 177.498 41.1617 177.765C41.5026 178.029 41.7626 178.412 41.9415 178.915C42.1226 179.416 42.2132 180.02 42.2132 180.727C42.2132 181.439 42.1237 182.046 41.9447 182.549C41.7657 183.05 41.5069 183.432 41.1681 183.696C40.8293 183.958 40.4192 184.089 39.9376 184.089ZM39.9376 183.386C40.4149 183.386 40.7856 183.156 41.0498 182.696C41.314 182.236 41.4461 181.58 41.4461 180.727C41.4461 180.161 41.3854 179.678 41.264 179.279C41.1447 178.881 40.9721 178.577 40.7462 178.369C40.5225 178.16 40.253 178.055 39.9376 178.055C39.4646 178.055 39.0949 178.289 38.8286 178.755C38.5623 179.22 38.4291 179.877 38.4291 180.727C38.4291 181.294 38.4888 181.776 38.6081 182.172C38.7274 182.568 38.8989 182.87 39.1226 183.076C39.3485 183.283 39.6202 183.386 39.9376 183.386ZM45.5626 184.089C45.0811 184.089 44.6709 183.958 44.3322 183.696C43.9934 183.432 43.7345 183.05 43.5555 182.549C43.3765 182.046 43.2871 181.439 43.2871 180.727C43.2871 180.02 43.3765 179.416 43.5555 178.915C43.7366 178.412 43.9966 178.029 44.3353 177.765C44.6763 177.498 45.0853 177.365 45.5626 177.365C46.0399 177.365 46.4479 177.498 46.7867 177.765C47.1276 178.029 47.3876 178.412 47.5665 178.915C47.7476 179.416 47.8382 180.02 47.8382 180.727C47.8382 181.439 47.7487 182.046 47.5697 182.549C47.3907 183.05 47.1319 183.432 46.7931 183.696C46.4543 183.958 46.0442 184.089 45.5626 184.089ZM45.5626 183.386C46.0399 183.386 46.4106 183.156 46.6748 182.696C46.939 182.236 47.0711 181.58 47.0711 180.727C47.0711 180.161 47.0104 179.678 46.889 179.279C46.7697 178.881 46.5971 178.577 46.3712 178.369C46.1475 178.16 45.878 178.055 45.5626 178.055C45.0896 178.055 44.7199 178.289 44.4536 178.755C44.1873 179.22 44.0541 179.877 44.0541 180.727C44.0541 181.294 44.1138 181.776 44.2331 182.172C44.3524 182.568 44.5239 182.87 44.7476 183.076C44.9735 183.283 45.2452 183.386 45.5626 183.386ZM51.1876 184.089C50.7061 184.089 50.2959 183.958 49.9572 183.696C49.6184 183.432 49.3595 183.05 49.1805 182.549C49.0015 182.046 48.9121 181.439 48.9121 180.727C48.9121 180.02 49.0015 179.416 49.1805 178.915C49.3616 178.412 49.6216 178.029 49.9603 177.765C50.3013 177.498 50.7103 177.365 51.1876 177.365C51.6649 177.365 52.0729 177.498 52.4117 177.765C52.7526 178.029 53.0126 178.412 53.1915 178.915C53.3726 179.416 53.4632 180.02 53.4632 180.727C53.4632 181.439 53.3737 182.046 53.1947 182.549C53.0157 183.05 52.7569 183.432 52.4181 183.696C52.0793 183.958 51.6692 184.089 51.1876 184.089ZM51.1876 183.386C51.6649 183.386 52.0356 183.156 52.2998 182.696C52.564 182.236 52.6961 181.58 52.6961 180.727C52.6961 180.161 52.6354 179.678 52.514 179.279C52.3947 178.881 52.2221 178.577 51.9962 178.369C51.7725 178.16 51.503 178.055 51.1876 178.055C50.7146 178.055 50.3449 178.289 50.0786 178.755C49.8123 179.22 49.6791 179.877 49.6791 180.727C49.6791 181.294 49.7388 181.776 49.8581 182.172C49.9774 182.568 50.1489 182.87 50.3726 183.076C50.5985 183.283 50.8702 183.386 51.1876 183.386Z" fill="white"/>
<path d="M33.0062 163L35.9338 157.209V157.158H32.5588V156.455H36.752V157.196L33.8372 163H33.0062ZM39.9376 163.089C39.4561 163.089 39.0459 162.958 38.7072 162.696C38.3684 162.432 38.1095 162.05 37.9305 161.549C37.7515 161.046 37.6621 160.439 37.6621 159.727C37.6621 159.02 37.7515 158.416 37.9305 157.915C38.1116 157.412 38.3716 157.029 38.7103 156.765C39.0513 156.498 39.4603 156.365 39.9376 156.365C40.4149 156.365 40.8229 156.498 41.1617 156.765C41.5026 157.029 41.7626 157.412 41.9415 157.915C42.1226 158.416 42.2132 159.02 42.2132 159.727C42.2132 160.439 42.1237 161.046 41.9447 161.549C41.7657 162.05 41.5069 162.432 41.1681 162.696C40.8293 162.958 40.4192 163.089 39.9376 163.089ZM39.9376 162.386C40.4149 162.386 40.7856 162.156 41.0498 161.696C41.314 161.236 41.4461 160.58 41.4461 159.727C41.4461 159.161 41.3854 158.678 41.264 158.279C41.1447 157.881 40.9721 157.577 40.7462 157.369C40.5225 157.16 40.253 157.055 39.9376 157.055C39.4646 157.055 39.0949 157.289 38.8286 157.755C38.5623 158.22 38.4291 158.877 38.4291 159.727C38.4291 160.294 38.4888 160.776 38.6081 161.172C38.7274 161.568 38.8989 161.87 39.1226 162.076C39.3485 162.283 39.6202 162.386 39.9376 162.386ZM45.5626 163.089C45.0811 163.089 44.6709 162.958 44.3322 162.696C43.9934 162.432 43.7345 162.05 43.5555 161.549C43.3765 161.046 43.2871 160.439 43.2871 159.727C43.2871 159.02 43.3765 158.416 43.5555 157.915C43.7366 157.412 43.9966 157.029 44.3353 156.765C44.6763 156.498 45.0853 156.365 45.5626 156.365C46.0399 156.365 46.4479 156.498 46.7867 156.765C47.1276 157.029 47.3876 157.412 47.5665 157.915C47.7476 158.416 47.8382 159.02 47.8382 159.727C47.8382 160.439 47.7487 161.046 47.5697 161.549C47.3907 162.05 47.1319 162.432 46.7931 162.696C46.4543 162.958 46.0442 163.089 45.5626 163.089ZM45.5626 162.386C46.0399 162.386 46.4106 162.156 46.6748 161.696C46.939 161.236 47.0711 160.58 47.0711 159.727C47.0711 159.161 47.0104 158.678 46.889 158.279C46.7697 157.881 46.5971 157.577 46.3712 157.369C46.1475 157.16 45.878 157.055 45.5626 157.055C45.0896 157.055 44.7199 157.289 44.4536 157.755C44.1873 158.22 44.0541 158.877 44.0541 159.727C44.0541 160.294 44.1138 160.776 44.2331 161.172C44.3524 161.568 44.5239 161.87 44.7476 162.076C44.9735 162.283 45.2452 162.386 45.5626 162.386ZM51.1876 163.089C50.7061 163.089 50.2959 162.958 49.9572 162.696C49.6184 162.432 49.3595 162.05 49.1805 161.549C49.0015 161.046 48.9121 160.439 48.9121 159.727C48.9121 159.02 49.0015 158.416 49.1805 157.915C49.3616 157.412 49.6216 157.029 49.9603 156.765C50.3013 156.498 50.7103 156.365 51.1876 156.365C51.6649 156.365 52.0729 156.498 52.4117 156.765C52.7526 157.029 53.0126 157.412 53.1915 157.915C53.3726 158.416 53.4632 159.02 53.4632 159.727C53.4632 160.439 53.3737 161.046 53.1947 161.549C53.0157 162.05 52.7569 162.432 52.4181 162.696C52.0793 162.958 51.6692 163.089 51.1876 163.089ZM51.1876 162.386C51.6649 162.386 52.0356 162.156 52.2998 161.696C52.564 161.236 52.6961 160.58 52.6961 159.727C52.6961 159.161 52.6354 158.678 52.514 158.279C52.3947 157.881 52.2221 157.577 51.9962 157.369C51.7725 157.16 51.503 157.055 51.1876 157.055C50.7146 157.055 50.3449 157.289 50.0786 157.755C49.8123 158.22 49.6791 158.877 49.6791 159.727C49.6791 160.294 49.7388 160.776 49.8581 161.172C49.9774 161.568 50.1489 161.87 50.3726 162.076C50.5985 162.283 50.8702 162.386 51.1876 162.386Z" fill="white"/>
<path d="M34.3534 142.089C33.9145 142.089 33.5267 142.012 33.19 141.856C32.8555 141.699 32.5945 141.482 32.407 141.207C32.2195 140.93 32.1268 140.615 32.1289 140.261C32.1268 139.984 32.1811 139.729 32.2919 139.494C32.4027 139.258 32.554 139.061 32.7458 138.903C32.9397 138.743 33.1559 138.642 33.3946 138.599V138.561C33.0814 138.48 32.8321 138.304 32.6467 138.034C32.4613 137.761 32.3697 137.451 32.3718 137.104C32.3697 136.771 32.4539 136.474 32.6243 136.212C32.7948 135.95 33.0292 135.743 33.3274 135.592C33.6279 135.441 33.9698 135.365 34.3534 135.365C34.7326 135.365 35.0714 135.441 35.3697 135.592C35.668 135.743 35.9024 135.95 36.0728 136.212C36.2454 136.474 36.3328 136.771 36.3349 137.104C36.3328 137.451 36.238 137.761 36.0505 138.034C35.8651 138.304 35.619 138.48 35.3122 138.561V138.599C35.5487 138.642 35.7618 138.743 35.9514 138.903C36.141 139.061 36.2923 139.258 36.4052 139.494C36.5181 139.729 36.5757 139.984 36.5778 140.261C36.5757 140.615 36.4798 140.93 36.2902 141.207C36.1027 141.482 35.8417 141.699 35.5071 141.856C35.1747 142.012 34.7902 142.089 34.3534 142.089ZM34.3534 141.386C34.6495 141.386 34.9052 141.338 35.1204 141.243C35.3356 141.147 35.5018 141.011 35.619 140.837C35.7362 140.662 35.7958 140.457 35.798 140.223C35.7958 139.976 35.7319 139.757 35.6062 139.568C35.4805 139.378 35.309 139.229 35.0917 139.12C34.8765 139.012 34.6304 138.957 34.3534 138.957C34.0743 138.957 33.825 139.012 33.6055 139.12C33.3882 139.229 33.2167 139.378 33.0909 139.568C32.9674 139.757 32.9066 139.976 32.9088 140.223C32.9066 140.457 32.9631 140.662 33.0782 140.837C33.1953 141.011 33.3626 141.147 33.5799 141.243C33.7973 141.338 34.0551 141.386 34.3534 141.386ZM34.3534 138.28C34.5877 138.28 34.7955 138.233 34.9766 138.139C35.1598 138.045 35.3037 137.914 35.4081 137.746C35.5125 137.578 35.5657 137.381 35.5679 137.155C35.5657 136.933 35.5135 136.74 35.4113 136.576C35.309 136.41 35.1673 136.282 34.9862 136.193C34.8051 136.101 34.5941 136.055 34.3534 136.055C34.1083 136.055 33.8942 136.101 33.711 136.193C33.5277 136.282 33.386 136.41 33.2859 136.576C33.1858 136.74 33.1368 136.933 33.1389 137.155C33.1368 137.381 33.1868 137.578 33.2891 137.746C33.3935 137.914 33.5373 138.045 33.7206 138.139C33.9038 138.233 34.1147 138.28 34.3534 138.28ZM39.9376 142.089C39.4561 142.089 39.0459 141.958 38.7072 141.696C38.3684 141.432 38.1095 141.05 37.9305 140.549C37.7515 140.046 37.6621 139.439 37.6621 138.727C37.6621 138.02 37.7515 137.416 37.9305 136.915C38.1116 136.412 38.3716 136.029 38.7103 135.765C39.0513 135.498 39.4603 135.365 39.9376 135.365C40.4149 135.365 40.8229 135.498 41.1617 135.765C41.5026 136.029 41.7626 136.412 41.9415 136.915C42.1226 137.416 42.2132 138.02 42.2132 138.727C42.2132 139.439 42.1237 140.046 41.9447 140.549C41.7657 141.05 41.5069 141.432 41.1681 141.696C40.8293 141.958 40.4192 142.089 39.9376 142.089ZM39.9376 141.386C40.4149 141.386 40.7856 141.156 41.0498 140.696C41.314 140.236 41.4461 139.58 41.4461 138.727C41.4461 138.161 41.3854 137.678 41.264 137.279C41.1447 136.881 40.9721 136.577 40.7462 136.369C40.5225 136.16 40.253 136.055 39.9376 136.055C39.4646 136.055 39.0949 136.289 38.8286 136.755C38.5623 137.22 38.4291 137.877 38.4291 138.727C38.4291 139.294 38.4888 139.776 38.6081 140.172C38.7274 140.568 38.8989 140.87 39.1226 141.076C39.3485 141.283 39.6202 141.386 39.9376 141.386ZM45.5626 142.089C45.0811 142.089 44.6709 141.958 44.3322 141.696C43.9934 141.432 43.7345 141.05 43.5555 140.549C43.3765 140.046 43.2871 139.439 43.2871 138.727C43.2871 138.02 43.3765 137.416 43.5555 136.915C43.7366 136.412 43.9966 136.029 44.3353 135.765C44.6763 135.498 45.0853 135.365 45.5626 135.365C46.0399 135.365 46.4479 135.498 46.7867 135.765C47.1276 136.029 47.3876 136.412 47.5665 136.915C47.7476 137.416 47.8382 138.02 47.8382 138.727C47.8382 139.439 47.7487 140.046 47.5697 140.549C47.3907 141.05 47.1319 141.432 46.7931 141.696C46.4543 141.958 46.0442 142.089 45.5626 142.089ZM45.5626 141.386C46.0399 141.386 46.4106 141.156 46.6748 140.696C46.939 140.236 47.0711 139.58 47.0711 138.727C47.0711 138.161 47.0104 137.678 46.889 137.279C46.7697 136.881 46.5971 136.577 46.3712 136.369C46.1475 136.16 45.878 136.055 45.5626 136.055C45.0896 136.055 44.7199 136.289 44.4536 136.755C44.1873 137.22 44.0541 137.877 44.0541 138.727C44.0541 139.294 44.1138 139.776 44.2331 140.172C44.3524 140.568 44.5239 140.87 44.7476 141.076C44.9735 141.283 45.2452 141.386 45.5626 141.386ZM51.1876 142.089C50.7061 142.089 50.2959 141.958 49.9572 141.696C49.6184 141.432 49.3595 141.05 49.1805 140.549C49.0015 140.046 48.9121 139.439 48.9121 138.727C48.9121 138.02 49.0015 137.416 49.1805 136.915C49.3616 136.412 49.6216 136.029 49.9603 135.765C50.3013 135.498 50.7103 135.365 51.1876 135.365C51.6649 135.365 52.0729 135.498 52.4117 135.765C52.7526 136.029 53.0126 136.412 53.1915 136.915C53.3726 137.416 53.4632 138.02 53.4632 138.727C53.4632 139.439 53.3737 140.046 53.1947 140.549C53.0157 141.05 52.7569 141.432 52.4181 141.696C52.0793 141.958 51.6692 142.089 51.1876 142.089ZM51.1876 141.386C51.6649 141.386 52.0356 141.156 52.2998 140.696C52.564 140.236 52.6961 139.58 52.6961 138.727C52.6961 138.161 52.6354 137.678 52.514 137.279C52.3947 136.881 52.2221 136.577 51.9962 136.369C51.7725 136.16 51.503 136.055 51.1876 136.055C50.7146 136.055 50.3449 136.289 50.0786 136.755C49.8123 137.22 49.6791 137.877 49.6791 138.727C49.6791 139.294 49.7388 139.776 49.8581 140.172C49.9774 140.568 50.1489 140.87 50.3726 141.076C50.5985 141.283 50.8702 141.386 51.1876 141.386Z" fill="white"/>
<path d="M10 109H365" stroke="#4F4F4F" stroke-width="2"/>
<path d="M59.0568 359V350.273H60.1136V354.159H64.767V350.273H65.8239V359H64.767V355.097H60.1136V359H59.0568ZM69.7294 359.153C69.3146 359.153 68.9382 359.075 68.6001 358.919C68.2621 358.76 67.9936 358.531 67.7947 358.233C67.5959 357.932 67.4964 357.568 67.4964 357.142C67.4964 356.767 67.5703 356.463 67.718 356.23C67.8658 355.994 68.0632 355.81 68.3104 355.676C68.5575 355.543 68.8303 355.443 69.1286 355.378C69.4297 355.31 69.7322 355.256 70.0362 355.216C70.4339 355.165 70.7564 355.126 71.0036 355.101C71.2536 355.072 71.4354 355.026 71.549 354.96C71.6655 354.895 71.7237 354.781 71.7237 354.619V354.585C71.7237 354.165 71.6087 353.838 71.3786 353.605C71.1513 353.372 70.8061 353.256 70.343 353.256C69.8629 353.256 69.4865 353.361 69.2138 353.571C68.9411 353.781 68.7493 354.006 68.6385 354.244L67.6839 353.903C67.8544 353.506 68.0817 353.196 68.3658 352.974C68.6527 352.75 68.9652 352.594 69.3033 352.506C69.6442 352.415 69.9794 352.369 70.3089 352.369C70.5192 352.369 70.7607 352.395 71.0334 352.446C71.3089 352.494 71.5746 352.595 71.8303 352.749C72.0888 352.902 72.3033 353.134 72.4737 353.443C72.6442 353.753 72.7294 354.168 72.7294 354.688V359H71.7237V358.114H71.6726C71.6044 358.256 71.4908 358.408 71.3317 358.57C71.1726 358.732 70.9609 358.869 70.6967 358.983C70.4325 359.097 70.1101 359.153 69.7294 359.153ZM69.8828 358.25C70.2805 358.25 70.6158 358.172 70.8885 358.016C71.1641 357.859 71.3714 357.658 71.5107 357.411C71.6527 357.163 71.7237 356.903 71.7237 356.631V355.71C71.6811 355.761 71.5874 355.808 71.4425 355.851C71.3004 355.891 71.1357 355.926 70.9482 355.957C70.7635 355.986 70.5831 356.011 70.407 356.034C70.2337 356.054 70.093 356.071 69.9851 356.085C69.7237 356.119 69.4794 356.175 69.2521 356.251C69.0277 356.325 68.8459 356.437 68.7067 356.588C68.5703 356.736 68.5021 356.937 68.5021 357.193C68.5021 357.543 68.6314 357.807 68.8899 357.986C69.1513 358.162 69.4822 358.25 69.8828 358.25ZM74.7013 359V350.273H75.707V353.494H75.7923C75.8661 353.381 75.9684 353.236 76.0991 353.06C76.2326 352.881 76.4229 352.722 76.6701 352.582C76.9201 352.44 77.2582 352.369 77.6843 352.369C78.2354 352.369 78.7212 352.507 79.1417 352.783C79.5621 353.058 79.8903 353.449 80.1261 353.955C80.3619 354.46 80.4798 355.057 80.4798 355.744C80.4798 356.438 80.3619 357.038 80.1261 357.547C79.8903 358.053 79.5636 358.445 79.146 358.723C78.7283 358.999 78.2468 359.136 77.7013 359.136C77.2809 359.136 76.9442 359.067 76.6914 358.928C76.4386 358.786 76.244 358.625 76.1076 358.446C75.9712 358.264 75.8661 358.114 75.7923 357.994H75.6729V359H74.7013ZM75.69 355.727C75.69 356.222 75.7624 356.658 75.9073 357.036C76.0522 357.411 76.2638 357.705 76.5423 357.918C76.8207 358.128 77.1616 358.233 77.565 358.233C77.9854 358.233 78.3363 358.122 78.6175 357.901C78.9016 357.676 79.1147 357.375 79.2567 356.997C79.4016 356.616 79.4741 356.193 79.4741 355.727C79.4741 355.267 79.4031 354.852 79.261 354.483C79.1218 354.111 78.9102 353.817 78.6261 353.601C78.3448 353.382 77.9911 353.273 77.565 353.273C77.1559 353.273 76.8121 353.376 76.5337 353.584C76.2553 353.788 76.0451 354.075 75.9031 354.445C75.761 354.811 75.69 355.239 75.69 355.727ZM82.0181 359V352.455H83.0238V359H82.0181ZM82.5295 351.364C82.3335 351.364 82.1644 351.297 82.0224 351.163C81.8832 351.03 81.8136 350.869 81.8136 350.682C81.8136 350.494 81.8832 350.334 82.0224 350.2C82.1644 350.067 82.3335 350 82.5295 350C82.7255 350 82.8931 350.067 83.0323 350.2C83.1744 350.334 83.2454 350.494 83.2454 350.682C83.2454 350.869 83.1744 351.03 83.0323 351.163C82.8931 351.297 82.7255 351.364 82.5295 351.364ZM87.7124 352.455V353.307H84.3203V352.455H87.7124ZM85.3089 350.886H86.3146V357.125C86.3146 357.409 86.3558 357.622 86.4382 357.764C86.5234 357.903 86.6314 357.997 86.7621 358.045C86.8956 358.091 87.0362 358.114 87.1839 358.114C87.2947 358.114 87.3857 358.108 87.4567 358.097C87.5277 358.082 87.5845 358.071 87.6271 358.062L87.8317 358.966C87.7635 358.991 87.6683 359.017 87.5462 359.043C87.424 359.071 87.2692 359.085 87.0817 359.085C86.7976 359.085 86.5192 359.024 86.2464 358.902C85.9766 358.78 85.7521 358.594 85.5732 358.344C85.397 358.094 85.3089 357.778 85.3089 357.398V350.886ZM93.7443 353.92L92.8409 354.176C92.7841 354.026 92.7003 353.879 92.5895 353.737C92.4815 353.592 92.3338 353.473 92.1463 353.379C91.9588 353.286 91.7188 353.239 91.4261 353.239C91.0256 353.239 90.6918 353.331 90.4247 353.516C90.1605 353.697 90.0284 353.929 90.0284 354.21C90.0284 354.46 90.1193 354.658 90.3011 354.803C90.483 354.947 90.767 355.068 91.1534 355.165L92.125 355.403C92.7102 355.545 93.1463 355.763 93.4332 356.055C93.7202 356.345 93.8636 356.719 93.8636 357.176C93.8636 357.551 93.7557 357.886 93.5398 358.182C93.3267 358.477 93.0284 358.71 92.6449 358.881C92.2614 359.051 91.8153 359.136 91.3068 359.136C90.6392 359.136 90.0866 358.991 89.6491 358.702C89.2116 358.412 88.9347 357.989 88.8182 357.432L89.7727 357.193C89.8636 357.545 90.0355 357.81 90.2884 357.986C90.544 358.162 90.8778 358.25 91.2898 358.25C91.7585 358.25 92.1307 358.151 92.4062 357.952C92.6847 357.75 92.8239 357.509 92.8239 357.227C92.8239 357 92.7443 356.81 92.5852 356.656C92.4261 356.5 92.1818 356.384 91.8523 356.307L90.7614 356.051C90.1619 355.909 89.7216 355.689 89.4403 355.391C89.1619 355.089 89.0227 354.713 89.0227 354.261C89.0227 353.892 89.1264 353.565 89.3338 353.281C89.544 352.997 89.8295 352.774 90.1903 352.612C90.554 352.45 90.9659 352.369 91.4261 352.369C92.0739 352.369 92.5824 352.511 92.9517 352.795C93.3239 353.08 93.5881 353.455 93.7443 353.92Z" fill="white"/>
<circle cx="45.5" cy="355.5" r="4.5" fill="#F94144"/>
<path d="M147.75 359H145.057V350.273H147.869C148.716 350.273 149.44 350.447 150.043 350.797C150.645 351.143 151.107 351.642 151.428 352.293C151.749 352.94 151.909 353.716 151.909 354.619C151.909 355.528 151.747 356.311 151.423 356.967C151.099 357.621 150.628 358.124 150.009 358.476C149.389 358.825 148.636 359 147.75 359ZM146.114 358.062H147.682C148.403 358.062 149.001 357.923 149.476 357.645C149.95 357.366 150.304 356.97 150.537 356.456C150.77 355.942 150.886 355.33 150.886 354.619C150.886 353.915 150.771 353.308 150.541 352.8C150.311 352.288 149.967 351.896 149.51 351.624C149.053 351.348 148.483 351.21 147.801 351.21H146.114V358.062ZM156.29 359.136C155.659 359.136 155.115 358.997 154.658 358.719C154.203 358.438 153.852 358.045 153.605 357.543C153.361 357.037 153.239 356.449 153.239 355.778C153.239 355.108 153.361 354.517 153.605 354.006C153.852 353.491 154.196 353.091 154.636 352.804C155.08 352.514 155.597 352.369 156.188 352.369C156.528 352.369 156.865 352.426 157.197 352.54C157.53 352.653 157.832 352.838 158.105 353.094C158.378 353.347 158.595 353.682 158.757 354.099C158.919 354.517 159 355.031 159 355.642V356.068H153.955V355.199H157.977C157.977 354.83 157.903 354.5 157.756 354.21C157.611 353.92 157.403 353.692 157.134 353.524C156.866 353.357 156.551 353.273 156.188 353.273C155.787 353.273 155.44 353.372 155.148 353.571C154.858 353.767 154.635 354.023 154.479 354.338C154.322 354.653 154.244 354.991 154.244 355.352V355.932C154.244 356.426 154.33 356.845 154.5 357.189C154.673 357.53 154.913 357.79 155.22 357.969C155.527 358.145 155.884 358.233 156.29 358.233C156.554 358.233 156.793 358.196 157.006 358.122C157.222 358.045 157.408 357.932 157.564 357.781C157.72 357.628 157.841 357.437 157.926 357.21L158.898 357.483C158.795 357.812 158.624 358.102 158.382 358.352C158.141 358.599 157.842 358.793 157.487 358.932C157.132 359.068 156.733 359.136 156.29 359.136ZM163.189 359.136C162.575 359.136 162.047 358.991 161.604 358.702C161.161 358.412 160.82 358.013 160.581 357.504C160.342 356.996 160.223 356.415 160.223 355.761C160.223 355.097 160.345 354.51 160.589 354.001C160.837 353.49 161.18 353.091 161.621 352.804C162.064 352.514 162.581 352.369 163.172 352.369C163.632 352.369 164.047 352.455 164.416 352.625C164.786 352.795 165.088 353.034 165.324 353.341C165.56 353.648 165.706 354.006 165.763 354.415H164.757C164.68 354.116 164.51 353.852 164.246 353.622C163.984 353.389 163.632 353.273 163.189 353.273C162.797 353.273 162.453 353.375 162.158 353.58C161.865 353.781 161.636 354.067 161.472 354.436C161.31 354.803 161.229 355.233 161.229 355.727C161.229 356.233 161.308 356.673 161.467 357.048C161.629 357.423 161.857 357.714 162.149 357.922C162.445 358.129 162.791 358.233 163.189 358.233C163.45 358.233 163.688 358.188 163.901 358.097C164.114 358.006 164.294 357.875 164.442 357.705C164.589 357.534 164.695 357.33 164.757 357.091H165.763C165.706 357.477 165.565 357.825 165.341 358.135C165.119 358.442 164.825 358.686 164.459 358.868C164.095 359.047 163.672 359.136 163.189 359.136ZM167.233 359V352.455H168.239V359H167.233ZM167.744 351.364C167.548 351.364 167.379 351.297 167.237 351.163C167.098 351.03 167.028 350.869 167.028 350.682C167.028 350.494 167.098 350.334 167.237 350.2C167.379 350.067 167.548 350 167.744 350C167.94 350 168.108 350.067 168.247 350.2C168.389 350.334 168.46 350.494 168.46 350.682C168.46 350.869 168.389 351.03 168.247 351.163C168.108 351.297 167.94 351.364 167.744 351.364ZM174.717 353.92L173.814 354.176C173.757 354.026 173.673 353.879 173.562 353.737C173.454 353.592 173.306 353.473 173.119 353.379C172.931 353.286 172.691 353.239 172.399 353.239C171.998 353.239 171.664 353.331 171.397 353.516C171.133 353.697 171.001 353.929 171.001 354.21C171.001 354.46 171.092 354.658 171.274 354.803C171.456 354.947 171.74 355.068 172.126 355.165L173.098 355.403C173.683 355.545 174.119 355.763 174.406 356.055C174.693 356.345 174.836 356.719 174.836 357.176C174.836 357.551 174.728 357.886 174.512 358.182C174.299 358.477 174.001 358.71 173.618 358.881C173.234 359.051 172.788 359.136 172.279 359.136C171.612 359.136 171.059 358.991 170.622 358.702C170.184 358.412 169.907 357.989 169.791 357.432L170.745 357.193C170.836 357.545 171.008 357.81 171.261 357.986C171.517 358.162 171.85 358.25 172.262 358.25C172.731 358.25 173.103 358.151 173.379 357.952C173.657 357.75 173.797 357.509 173.797 357.227C173.797 357 173.717 356.81 173.558 356.656C173.399 356.5 173.154 356.384 172.825 356.307L171.734 356.051C171.135 355.909 170.694 355.689 170.413 355.391C170.135 355.089 169.995 354.713 169.995 354.261C169.995 353.892 170.099 353.565 170.306 353.281C170.517 352.997 170.802 352.774 171.163 352.612C171.527 352.45 171.939 352.369 172.399 352.369C173.047 352.369 173.555 352.511 173.924 352.795C174.297 353.08 174.561 353.455 174.717 353.92ZM176.35 359V352.455H177.356V359H176.35ZM176.862 351.364C176.665 351.364 176.496 351.297 176.354 351.163C176.215 351.03 176.146 350.869 176.146 350.682C176.146 350.494 176.215 350.334 176.354 350.2C176.496 350.067 176.665 350 176.862 350C177.058 350 177.225 350.067 177.364 350.2C177.506 350.334 177.577 350.494 177.577 350.682C177.577 350.869 177.506 351.03 177.364 351.163C177.225 351.297 177.058 351.364 176.862 351.364ZM181.857 359.136C181.266 359.136 180.748 358.996 180.301 358.714C179.858 358.433 179.512 358.04 179.262 357.534C179.015 357.028 178.891 356.437 178.891 355.761C178.891 355.08 179.015 354.484 179.262 353.976C179.512 353.467 179.858 353.072 180.301 352.791C180.748 352.51 181.266 352.369 181.857 352.369C182.448 352.369 182.965 352.51 183.408 352.791C183.854 353.072 184.201 353.467 184.448 353.976C184.698 354.484 184.823 355.08 184.823 355.761C184.823 356.437 184.698 357.028 184.448 357.534C184.201 358.04 183.854 358.433 183.408 358.714C182.965 358.996 182.448 359.136 181.857 359.136ZM181.857 358.233C182.306 358.233 182.675 358.118 182.965 357.888C183.255 357.658 183.469 357.355 183.608 356.98C183.748 356.605 183.817 356.199 183.817 355.761C183.817 355.324 183.748 354.916 183.608 354.538C183.469 354.161 183.255 353.855 182.965 353.622C182.675 353.389 182.306 353.273 181.857 353.273C181.408 353.273 181.039 353.389 180.749 353.622C180.459 353.855 180.245 354.161 180.105 354.538C179.966 354.916 179.897 355.324 179.897 355.761C179.897 356.199 179.966 356.605 180.105 356.98C180.245 357.355 180.459 357.658 180.749 357.888C181.039 358.118 181.408 358.233 181.857 358.233ZM187.364 355.062V359H186.358V352.455H187.33V353.477H187.415C187.568 353.145 187.801 352.878 188.114 352.676C188.426 352.472 188.83 352.369 189.324 352.369C189.767 352.369 190.155 352.46 190.487 352.642C190.82 352.821 191.078 353.094 191.263 353.46C191.447 353.824 191.54 354.284 191.54 354.841V359H190.534V354.909C190.534 354.395 190.401 353.994 190.134 353.707C189.866 353.418 189.5 353.273 189.034 353.273C188.713 353.273 188.426 353.342 188.173 353.482C187.923 353.621 187.726 353.824 187.581 354.091C187.436 354.358 187.364 354.682 187.364 355.062ZM198.014 353.92L197.11 354.176C197.054 354.026 196.97 353.879 196.859 353.737C196.751 353.592 196.603 353.473 196.416 353.379C196.228 353.286 195.988 353.239 195.696 353.239C195.295 353.239 194.961 353.331 194.694 353.516C194.43 353.697 194.298 353.929 194.298 354.21C194.298 354.46 194.389 354.658 194.571 354.803C194.752 354.947 195.037 355.068 195.423 355.165L196.395 355.403C196.98 355.545 197.416 355.763 197.703 356.055C197.99 356.345 198.133 356.719 198.133 357.176C198.133 357.551 198.025 357.886 197.809 358.182C197.596 358.477 197.298 358.71 196.914 358.881C196.531 359.051 196.085 359.136 195.576 359.136C194.909 359.136 194.356 358.991 193.919 358.702C193.481 358.412 193.204 357.989 193.088 357.432L194.042 357.193C194.133 357.545 194.305 357.81 194.558 357.986C194.814 358.162 195.147 358.25 195.559 358.25C196.028 358.25 196.4 358.151 196.676 357.952C196.954 357.75 197.093 357.509 197.093 357.227C197.093 357 197.014 356.81 196.855 356.656C196.696 356.5 196.451 356.384 196.122 356.307L195.031 356.051C194.431 355.909 193.991 355.689 193.71 355.391C193.431 355.089 193.292 354.713 193.292 354.261C193.292 353.892 193.396 353.565 193.603 353.281C193.814 352.997 194.099 352.774 194.46 352.612C194.824 352.45 195.235 352.369 195.696 352.369C196.343 352.369 196.852 352.511 197.221 352.795C197.593 353.08 197.858 353.455 198.014 353.92Z" fill="white"/>
<circle cx="131.5" cy="355.5" r="4.5" fill="#90BE6D"/>
<path d="M231.057 359V350.273H232.114V354.159H236.767V350.273H237.824V359H236.767V355.097H232.114V359H231.057ZM241.729 359.153C241.315 359.153 240.938 359.075 240.6 358.919C240.262 358.76 239.994 358.531 239.795 358.233C239.596 357.932 239.496 357.568 239.496 357.142C239.496 356.767 239.57 356.463 239.718 356.23C239.866 355.994 240.063 355.81 240.31 355.676C240.558 355.543 240.83 355.443 241.129 355.378C241.43 355.31 241.732 355.256 242.036 355.216C242.434 355.165 242.756 355.126 243.004 355.101C243.254 355.072 243.435 355.026 243.549 354.96C243.665 354.895 243.724 354.781 243.724 354.619V354.585C243.724 354.165 243.609 353.838 243.379 353.605C243.151 353.372 242.806 353.256 242.343 353.256C241.863 353.256 241.487 353.361 241.214 353.571C240.941 353.781 240.749 354.006 240.638 354.244L239.684 353.903C239.854 353.506 240.082 353.196 240.366 352.974C240.653 352.75 240.965 352.594 241.303 352.506C241.644 352.415 241.979 352.369 242.309 352.369C242.519 352.369 242.761 352.395 243.033 352.446C243.309 352.494 243.575 352.595 243.83 352.749C244.089 352.902 244.303 353.134 244.474 353.443C244.644 353.753 244.729 354.168 244.729 354.688V359H243.724V358.114H243.673C243.604 358.256 243.491 358.408 243.332 358.57C243.173 358.732 242.961 358.869 242.697 358.983C242.433 359.097 242.11 359.153 241.729 359.153ZM241.883 358.25C242.281 358.25 242.616 358.172 242.888 358.016C243.164 357.859 243.371 357.658 243.511 357.411C243.653 357.163 243.724 356.903 243.724 356.631V355.71C243.681 355.761 243.587 355.808 243.442 355.851C243.3 355.891 243.136 355.926 242.948 355.957C242.763 355.986 242.583 356.011 242.407 356.034C242.234 356.054 242.093 356.071 241.985 356.085C241.724 356.119 241.479 356.175 241.252 356.251C241.028 356.325 240.846 356.437 240.707 356.588C240.57 356.736 240.502 356.937 240.502 357.193C240.502 357.543 240.631 357.807 240.89 357.986C241.151 358.162 241.482 358.25 241.883 358.25ZM246.565 361.455V352.455H247.537V353.494H247.656C247.73 353.381 247.832 353.236 247.963 353.06C248.096 352.881 248.287 352.722 248.534 352.582C248.784 352.44 249.122 352.369 249.548 352.369C250.099 352.369 250.585 352.507 251.005 352.783C251.426 353.058 251.754 353.449 251.99 353.955C252.225 354.46 252.343 355.057 252.343 355.744C252.343 356.438 252.225 357.038 251.99 357.547C251.754 358.053 251.427 358.445 251.01 358.723C250.592 358.999 250.11 359.136 249.565 359.136C249.145 359.136 248.808 359.067 248.555 358.928C248.302 358.786 248.108 358.625 247.971 358.446C247.835 358.264 247.73 358.114 247.656 357.994H247.571V361.455H246.565ZM247.554 355.727C247.554 356.222 247.626 356.658 247.771 357.036C247.916 357.411 248.127 357.705 248.406 357.918C248.684 358.128 249.025 358.233 249.429 358.233C249.849 358.233 250.2 358.122 250.481 357.901C250.765 357.676 250.978 357.375 251.12 356.997C251.265 356.616 251.338 356.193 251.338 355.727C251.338 355.267 251.267 354.852 251.125 354.483C250.985 354.111 250.774 353.817 250.49 353.601C250.208 353.382 249.855 353.273 249.429 353.273C249.02 353.273 248.676 353.376 248.397 353.584C248.119 353.788 247.909 354.075 247.767 354.445C247.625 354.811 247.554 355.239 247.554 355.727ZM253.877 361.455V352.455H254.849V353.494H254.968C255.042 353.381 255.145 353.236 255.275 353.06C255.409 352.881 255.599 352.722 255.846 352.582C256.096 352.44 256.434 352.369 256.86 352.369C257.412 352.369 257.897 352.507 258.318 352.783C258.738 353.058 259.066 353.449 259.302 353.955C259.538 354.46 259.656 355.057 259.656 355.744C259.656 356.438 259.538 357.038 259.302 357.547C259.066 358.053 258.74 358.445 258.322 358.723C257.904 358.999 257.423 359.136 256.877 359.136C256.457 359.136 256.12 359.067 255.868 358.928C255.615 358.786 255.42 358.625 255.284 358.446C255.147 358.264 255.042 358.114 254.968 357.994H254.883V361.455H253.877ZM254.866 355.727C254.866 356.222 254.939 356.658 255.083 357.036C255.228 357.411 255.44 357.705 255.718 357.918C255.997 358.128 256.338 358.233 256.741 358.233C257.162 358.233 257.512 358.122 257.794 357.901C258.078 357.676 258.291 357.375 258.433 356.997C258.578 356.616 258.65 356.193 258.65 355.727C258.65 355.267 258.579 354.852 258.437 354.483C258.298 354.111 258.086 353.817 257.802 353.601C257.521 353.382 257.167 353.273 256.741 353.273C256.332 353.273 255.988 353.376 255.71 353.584C255.431 353.788 255.221 354.075 255.079 354.445C254.937 354.811 254.866 355.239 254.866 355.727ZM261.19 359V352.455H262.196V359H261.19ZM261.701 351.364C261.505 351.364 261.336 351.297 261.194 351.163C261.055 351.03 260.985 350.869 260.985 350.682C260.985 350.494 261.055 350.334 261.194 350.2C261.336 350.067 261.505 350 261.701 350C261.897 350 262.065 350.067 262.204 350.2C262.346 350.334 262.417 350.494 262.417 350.682C262.417 350.869 262.346 351.03 262.204 351.163C262.065 351.297 261.897 351.364 261.701 351.364ZM265.043 355.062V359H264.038V352.455H265.009V353.477H265.094C265.248 353.145 265.481 352.878 265.793 352.676C266.106 352.472 266.509 352.369 267.004 352.369C267.447 352.369 267.835 352.46 268.167 352.642C268.499 352.821 268.758 353.094 268.942 353.46C269.127 353.824 269.219 354.284 269.219 354.841V359H268.214V354.909C268.214 354.395 268.08 353.994 267.813 353.707C267.546 353.418 267.18 353.273 266.714 353.273C266.393 353.273 266.106 353.342 265.853 353.482C265.603 353.621 265.406 353.824 265.261 354.091C265.116 354.358 265.043 354.682 265.043 355.062ZM273.801 359.136C273.171 359.136 272.627 358.997 272.169 358.719C271.715 358.438 271.364 358.045 271.117 357.543C270.873 357.037 270.75 356.449 270.75 355.778C270.75 355.108 270.873 354.517 271.117 354.006C271.364 353.491 271.708 353.091 272.148 352.804C272.591 352.514 273.108 352.369 273.699 352.369C274.04 352.369 274.377 352.426 274.709 352.54C275.042 352.653 275.344 352.838 275.617 353.094C275.89 353.347 276.107 353.682 276.269 354.099C276.431 354.517 276.512 355.031 276.512 355.642V356.068H271.466V355.199H275.489C275.489 354.83 275.415 354.5 275.267 354.21C275.123 353.92 274.915 353.692 274.645 353.524C274.378 353.357 274.063 353.273 273.699 353.273C273.299 353.273 272.952 353.372 272.659 353.571C272.37 353.767 272.147 354.023 271.99 354.338C271.834 354.653 271.756 354.991 271.756 355.352V355.932C271.756 356.426 271.841 356.845 272.012 357.189C272.185 357.53 272.425 357.79 272.732 357.969C273.039 358.145 273.395 358.233 273.801 358.233C274.066 358.233 274.304 358.196 274.517 358.122C274.733 358.045 274.919 357.932 275.076 357.781C275.232 357.628 275.353 357.437 275.438 357.21L276.409 357.483C276.307 357.812 276.135 358.102 275.894 358.352C275.652 358.599 275.354 358.793 274.999 358.932C274.644 359.068 274.245 359.136 273.801 359.136ZM282.678 353.92L281.775 354.176C281.718 354.026 281.634 353.879 281.523 353.737C281.415 353.592 281.267 353.473 281.08 353.379C280.892 353.286 280.652 353.239 280.36 353.239C279.959 353.239 279.625 353.331 279.358 353.516C279.094 353.697 278.962 353.929 278.962 354.21C278.962 354.46 279.053 354.658 279.235 354.803C279.417 354.947 279.701 355.068 280.087 355.165L281.059 355.403C281.644 355.545 282.08 355.763 282.367 356.055C282.654 356.345 282.797 356.719 282.797 357.176C282.797 357.551 282.689 357.886 282.473 358.182C282.26 358.477 281.962 358.71 281.578 358.881C281.195 359.051 280.749 359.136 280.24 359.136C279.573 359.136 279.02 358.991 278.583 358.702C278.145 358.412 277.868 357.989 277.752 357.432L278.706 357.193C278.797 357.545 278.969 357.81 279.222 357.986C279.478 358.162 279.811 358.25 280.223 358.25C280.692 358.25 281.064 358.151 281.34 357.952C281.618 357.75 281.757 357.509 281.757 357.227C281.757 357 281.678 356.81 281.519 356.656C281.36 356.5 281.115 356.384 280.786 356.307L279.695 356.051C279.096 355.909 278.655 355.689 278.374 355.391C278.096 355.089 277.956 354.713 277.956 354.261C277.956 353.892 278.06 353.565 278.267 353.281C278.478 352.997 278.763 352.774 279.124 352.612C279.488 352.45 279.9 352.369 280.36 352.369C281.007 352.369 281.516 352.511 281.885 352.795C282.257 353.08 282.522 353.455 282.678 353.92ZM288.947 353.92L288.044 354.176C287.987 354.026 287.903 353.879 287.793 353.737C287.685 353.592 287.537 353.473 287.349 353.379C287.162 353.286 286.922 353.239 286.629 353.239C286.229 353.239 285.895 353.331 285.628 353.516C285.364 353.697 285.232 353.929 285.232 354.21C285.232 354.46 285.322 354.658 285.504 354.803C285.686 354.947 285.97 355.068 286.357 355.165L287.328 355.403C287.913 355.545 288.349 355.763 288.636 356.055C288.923 356.345 289.067 356.719 289.067 357.176C289.067 357.551 288.959 357.886 288.743 358.182C288.53 358.477 288.232 358.71 287.848 358.881C287.464 359.051 287.018 359.136 286.51 359.136C285.842 359.136 285.29 358.991 284.852 358.702C284.415 358.412 284.138 357.989 284.021 357.432L284.976 357.193C285.067 357.545 285.239 357.81 285.491 357.986C285.747 358.162 286.081 358.25 286.493 358.25C286.962 358.25 287.334 358.151 287.609 357.952C287.888 357.75 288.027 357.509 288.027 357.227C288.027 357 287.947 356.81 287.788 356.656C287.629 356.5 287.385 356.384 287.055 356.307L285.964 356.051C285.365 355.909 284.925 355.689 284.643 355.391C284.365 355.089 284.226 354.713 284.226 354.261C284.226 353.892 284.33 353.565 284.537 353.281C284.747 352.997 285.033 352.774 285.393 352.612C285.757 352.45 286.169 352.369 286.629 352.369C287.277 352.369 287.786 352.511 288.155 352.795C288.527 353.08 288.791 353.455 288.947 353.92Z" fill="white"/>
<circle cx="217.5" cy="355.5" r="4.5" fill="#2D9CDB"/>
<rect x="74" y="185" width="7" height="125" fill="#F94144"/>
<rect x="85" y="227" width="7" height="83" fill="#90BE6D"/>
<rect x="96" y="164" width="7" height="146" fill="#2D9CDB"/>
<rect x="162" y="185" width="7" height="125" fill="#2D9CDB"/>
<rect x="232" y="269" width="7" height="41" fill="#2D9CDB"/>
<rect x="296" y="227" width="7" height="83" fill="#2D9CDB"/>
<rect x="151" y="269" width="7" height="41" fill="#90BE6D"/>
<rect x="221" y="185" width="7" height="125" fill="#90BE6D"/>
<rect x="285" y="248" width="7" height="62" fill="#90BE6D"/>
<rect x="139" y="226" width="8" height="83" fill="#F94144"/>
<rect x="209" y="144" width="8" height="166" fill="#F94144"/>
<rect x="274" y="165" width="7" height="145" fill="#F94144"/>
<defs>
<filter id="filter0_d_17_1297" x="0" y="0" width="375" height="410" filterUnits="userSpaceOnUse" color-interpolation-filters="sRGB">
<feFlood flood-opacity="0" result="BackgroundImageFix"/>
<feColorMatrix in="SourceAlpha" type="matrix" values="0 0 0 0 0 0 0 0 0 0 0 0 0 0 0 0 0 0 127 0" result="hardAlpha"/>
<feOffset dy="2"/>
<feGaussianBlur stdDeviation="5"/>
<feComposite in2="hardAlpha" operator="out"/>
<feColorMatrix type="matrix" values="0 0 0 0 0 0 0 0 0 0 0 0 0 0 0 0 0 0 0.1 0"/>
<feBlend mode="normal" in2="BackgroundImageFix" result="effect1_dropShadow_17_1297"/>
<feBlend mode="normal" in="SourceGraphic" in2="effect1_dropShadow_17_1297" result="shape"/>
</filter>
</defs>
</svg>
